<svg fill="none" xmlns="http://www.w3.org/2000/svg" viewBox="0 0 12 17"><path d="M6.375.559a6.381 6.381 0 012.75.704c.875.448 1.563 1.024 2.063 1.792.53.832.812 1.792.812 2.816a8.886 8.886 0 01-.5 2.912c-.375 1.024-.906 1.792-1.594 2.368-.781.64-1.687.96-2.719.96-.437 0-.843-.096-1.25-.288a1.735 1.735 0 01-.906-.864l-.25 1.024c-.281 1.12-.5 1.888-.656 2.304-.25.576-.719 1.312-1.344 2.208l-.125.064-.094-.096-.03-.48a13.31 13.31 0 01-.095-1.344c0-.64.094-1.472.313-2.496.125-.576.313-1.472.625-2.656L3.75 7.95c-.219-.384-.313-.928-.313-1.6 0-.608.157-1.12.47-1.536.25-.32.593-.544 1-.64.374-.064.718 0 1.03.224.282.256.438.608.438 1.12 0 .288-.063.608-.125.928-.063.192-.156.512-.281.896-.157.416-.25.704-.282.896-.093.352-.125.64-.125.896 0 .416.125.768.407 1.024.281.256.625.384 1.031.384.656 0 1.219-.288 1.688-.896.374-.48.687-1.152.874-1.984a8.9 8.9 0 00.25-2.016c0-1.088-.343-1.952-1.03-2.592-.688-.608-1.563-.928-2.657-.928-.813 0-1.563.192-2.25.576-.688.384-1.188.928-1.563 1.568-.374.672-.562 1.44-.562 2.272 0 .384.063.736.188 1.056.062.192.156.448.343.704.125.224.188.352.188.416 0 .192-.063.384-.125.64-.125.32-.219.48-.344.48-.281 0-.563-.128-.875-.416a2.977 2.977 0 01-.781-1.184C.094 7.663 0 7.023 0 6.319c0-1.152.313-2.176.938-3.072C1.5 2.415 2.28 1.775 3.28 1.295c.969-.48 2-.736 3.094-.736z" fill="#393939"/></svg>