<svg fill="none" xmlns="http://www.w3.org/2000/svg" viewBox="0 0 14 15"><path d="M7 3.965c.625 0 1.219.187 1.781.5.563.312 1 .75 1.313 1.312.312.563.5 1.157.5 1.782 0 .656-.188 1.25-.5 1.812-.313.563-.75 1-1.313 1.313A3.614 3.614 0 017 11.152c-.656 0-1.25-.156-1.813-.468-.562-.313-1-.75-1.312-1.313a3.645 3.645 0 01-.469-1.812c0-.625.156-1.22.469-1.782.313-.562.75-1 1.313-1.312.562-.313 1.156-.5 1.812-.5zm0 5.937c.625 0 1.188-.218 1.656-.687.438-.438.688-1 .688-1.656 0-.625-.25-1.188-.688-1.657-.469-.437-1.031-.687-1.656-.687-.656 0-1.219.25-1.656.687a2.267 2.267 0 00-.688 1.657c0 .656.219 1.218.688 1.656.437.469 1 .687 1.656.687zm4.594-6.093c0-.22-.094-.407-.25-.594-.188-.156-.375-.25-.594-.25a.8.8 0 00-.594.25.781.781 0 00-.25.594c0 .25.063.437.25.593.156.188.344.25.594.25a.678.678 0 00.563-.25.967.967 0 00.28-.593zm2.375.843c0 .594.031 1.563.031 2.907 0 1.375-.031 2.343-.063 2.937a6.806 6.806 0 01-.25 1.531c-.187.532-.5 1-.874 1.375a3.768 3.768 0 01-1.344.844c-.438.156-.969.25-1.563.281-.594.032-1.562.032-2.906.032-1.375 0-2.344 0-2.938-.032-.593-.03-1.093-.125-1.53-.312-.532-.156-1-.438-1.376-.813a3.636 3.636 0 01-.843-1.375c-.157-.437-.25-.937-.282-1.53C0 9.901 0 8.933 0 7.558c0-1.344 0-2.313.031-2.907.032-.593.125-1.125.281-1.562.188-.5.47-.969.844-1.344A3.702 3.702 0 012.531.871a6.809 6.809 0 011.531-.25A57.747 57.747 0 017 .56c1.344 0 2.313.03 2.906.062a7.11 7.11 0 011.563.25c.5.188.969.5 1.344.875.374.375.687.844.874 1.344.126.437.22.969.282 1.562zm-1.5 7.032c.125-.344.187-.907.25-1.688 0-.437.031-1.094.031-1.937v-1c0-.844-.031-1.5-.031-1.938-.063-.781-.125-1.344-.25-1.687a2.37 2.37 0 00-1.344-1.344c-.344-.125-.906-.188-1.688-.25-.468 0-1.124-.031-1.937-.031h-1c-.844 0-1.5.03-1.938.03-.78.063-1.343.126-1.687.25-.656.25-1.094.72-1.344 1.345-.125.343-.218.906-.25 1.687-.031.469-.031 1.125-.031 1.938v1c0 .843 0 1.5.031 1.937.032.781.125 1.344.25 1.688.25.656.719 1.093 1.344 1.343.344.125.906.22 1.688.25.437.032 1.093.032 1.937.032h1c.844 0 1.5 0 1.938-.032.78-.03 1.343-.125 1.687-.25a2.37 2.37 0 001.344-1.343z" fill="#393939"/></svg>