<svg fill="none" xmlns="http://www.w3.org/2000/svg" viewBox="0 0 16 14"><path d="M14.344 3.809A7.232 7.232 0 0016 2.089c-.625.282-1.25.47-1.875.532.688-.437 1.188-1.031 1.438-1.812-.657.375-1.344.656-2.094.78a3.784 3.784 0 00-1.094-.75 3.094 3.094 0 00-1.313-.28c-.593 0-1.124.156-1.624.437A3.41 3.41 0 008.25 2.215c-.313.5-.438 1.062-.438 1.625 0 .25 0 .5.063.75-1.344-.063-2.594-.375-3.781-1a8.645 8.645 0 01-2.969-2.438A3.25 3.25 0 00.656 2.81c0 .562.125 1.093.406 1.562.25.5.625.875 1.063 1.188A2.698 2.698 0 01.656 5.12v.063c0 .78.25 1.468.75 2.062.5.625 1.125 1 1.875 1.156a4.395 4.395 0 01-.875.094c-.187 0-.406 0-.594-.031.188.656.563 1.187 1.125 1.625.563.437 1.188.625 1.938.625-1.219.937-2.594 1.406-4.094 1.406-.312 0-.562 0-.781-.031 1.5 1 3.188 1.469 5.031 1.469 1.907 0 3.594-.47 5.094-1.47a8.862 8.862 0 003.156-3.53c.719-1.375 1.094-2.844 1.094-4.344 0-.188-.031-.313-.031-.406z" fill="#393939"/></svg>