<svg fill="none" xmlns="http://www.w3.org/2000/svg" viewBox="0 0 71 64"><path d="M16.61 29.165c-1.066 1.871-2.025.768-4.071.806-4.365.08-8.75 5.734-8.75 5.734s.822 1.4 4.28 3.895c1.222.874 3.394.9 3.394.9s.807 3.21 4.403 6.272c1.282 1.064 2.662 1.51 2.662 1.51s2.823 1.353 7.118.853c1.986-.23 5.227-1.803 5.227-1.803 5.124-2.589 6.336-8.245 6.336-8.245s-.88-2.18 1.092-2.32c12.72-1.026 12.406-2.481 12.406-2.481-.391-.969-1.606-1.025-1.606-1.025 1.795-1.892-.726-2.29-.726-2.29 1.22-1.122.108-2.114-.137-2.289 0 0-.646-.782-12.082 4.164-2.824 1.23-6.701-1.196-6.701-1.196s1.08-1.099.145-2.063c0 0 1.038-.833 1.22-1.121.349-.49.468-1.241-.221-1.758 0 0 2.098-1.799 2.547-2.634.443-.792.478-1.874-.02-2.452 0 0 1.346-1.056 1.788-1.847.326-.629.501-1.734.334-2.395 0 0 2.228-2.05 2.898-2.851.226-.282 1.025-1.606.795-2.73-.154-.75-.34-1.006-.34-1.006 2.49-3.415 1.506-5.791 1.506-5.791-.04.537-1.153 2.99-2.117 3.926-1.125 1.091-1.665 1.64-4.852 3.448-6.375 3.616-8.547 5.313-11.716 8.438-1.022 1.017-3.293 4.194-3.822 6.105-.624 1.941-1.034 2.239-.99 2.246Z" fill="#F8F3EC"/><path d="M16.61 29.165c-1.066 1.871-2.025.768-4.071.806-4.365.08-8.75 5.734-8.75 5.734s.822 1.4 4.28 3.895c1.222.874 3.394.9 3.394.9s.807 3.21 4.403 6.272c1.282 1.064 2.662 1.51 2.662 1.51s2.823 1.353 7.118.853c1.986-.23 5.227-1.803 5.227-1.803 5.124-2.589 6.336-8.245 6.336-8.245s-.88-2.18 1.092-2.32c12.72-1.026 12.406-2.481 12.406-2.481-.391-.969-1.606-1.025-1.606-1.025 1.795-1.892-.726-2.29-.726-2.29 1.22-1.122.108-2.114-.137-2.289 0 0-.646-.782-12.082 4.164-2.824 1.23-6.701-1.196-6.701-1.196s1.08-1.099.145-2.063c0 0 1.038-.833 1.22-1.121.349-.49.468-1.241-.221-1.758 0 0 2.098-1.799 2.547-2.634.443-.792.478-1.874-.02-2.452 0 0 1.346-1.056 1.788-1.847.326-.629.501-1.734.334-2.395 0 0 2.228-2.05 2.898-2.851.226-.282 1.025-1.606.795-2.73-.154-.75-.34-1.006-.34-1.006 2.49-3.415 1.506-5.791 1.506-5.791-.04.537-1.153 2.99-2.117 3.926-1.125 1.091-1.665 1.64-4.852 3.448-6.375 3.616-8.547 5.313-11.716 8.438-1.022 1.017-3.293 4.194-3.822 6.105-.624 1.941-1.034 2.239-.99 2.246Z" stroke="#393939" stroke-width="1.2" stroke-miterlimit="10" stroke-linejoin="round"/><path d="M33.182 12.383s1.25 2.42-1.095 3.771c0 0-.16 2.151-.588 2.854-.421.659-1.674 1.413-1.77 1.443 0 0 .685 1.694-.505 2.912-.65.668-1.786 1.259-1.786 1.259s.805 1.215.49 2.344c-.249 1.003-1.061 1.554-1.061 1.554s.665.378.502 1.123c-.228.87-.703 1.294-.922 1.531" stroke="#393939" stroke-width="1.2" stroke-miterlimit="10" stroke-linejoin="round"/><path d="M30.51 26.694s-3.047 1.785-3.436 1.95M29.46 29.61s-2.093 1.483-2.57 1.634M33.03 21.653s-3.14 2.087-4.704 2.52M35.108 17.403s-3.618 2.238-4.88 2.764M38.506 10.823s-1.383 1.866-2.852 3.13c-1.47 1.264-3.435 2.222-3.435 2.222M42.68 33.152l6.23.17M48.273 31.045l-5.592 2.107" stroke="#393939" stroke-width="1.2" stroke-miterlimit="10" stroke-linejoin="round"/><path d="M23.973 39.94c1.394.357 1.22 2.323 1.22 2.323 2.592.23 2.473 2.704 2.473 2.704 3.494.552 3.274 3.373 3.274 3.373 2.281.77 2.343 2.955 2.343 2.955 2.717.883 3.184 3.088 3.184 3.088 6.764 2.52 7.229 6.175 7.229 6.175-.652-.466-4.255-1.761-6.05-2.453-1.794-.692-6.813-1.35-7.749-1.452-.935-.103-4.667-.013-7.318-1.883-2.65-1.87-4.14-6.503-4.14-6.503s-1.19-4.223-.949-9.76c0 0-3.48-5.22-6.686-5.591-3.205-.371-5.914 4.142-5.914 4.142-1.328-1.344-1.896-2.34-1.896-2.34s4.762-6.319 9.082-6.406c3.187-.085 4.532.58 6.28 2.716.64.826 1.543.561 2.425.429 1.816-.303 4.046-.358 8.609.319 4.12.606 13.08-3.598 15.623-5.055 3.538-2.024 11.059-8.586 11.059-8.586s-1.172 4.257-4.034 7.159c-2.854 2.858-9.995 8.165-10.04 8.159-.043-.008 15.48 1.586 18.765 2.605 2.849.904 4.189 1.886 4.82 2.485 0 0-9.307-.203-13.674-.395-4.374-.148-5.92-.12-6.927-.053-1.604.109-14.768 2.515-20.846 1.961l-.163-.116Z" fill="#F8F3EC"/><path d="M23.973 39.94c1.394.357 1.22 2.323 1.22 2.323 2.592.23 2.473 2.704 2.473 2.704 3.494.552 3.274 3.373 3.274 3.373 2.281.77 2.343 2.955 2.343 2.955 2.717.883 3.184 3.088 3.184 3.088 6.764 2.52 7.229 6.175 7.229 6.175-.652-.466-4.255-1.761-6.05-2.453-1.794-.692-6.813-1.35-7.749-1.452-.935-.103-4.667-.013-7.318-1.883-2.65-1.87-4.14-6.503-4.14-6.503s-1.19-4.223-.949-9.76c0 0-3.48-5.22-6.686-5.591-3.205-.371-5.914 4.142-5.914 4.142-1.328-1.344-1.896-2.34-1.896-2.34s4.762-6.319 9.082-6.406c3.187-.085 4.532.58 6.28 2.716.64.826 1.543.561 2.425.429 1.816-.303 4.046-.358 8.609.319 4.12.606 13.08-3.598 15.623-5.055 3.538-2.024 11.059-8.586 11.059-8.586s-1.172 4.257-4.034 7.159c-2.854 2.858-9.995 8.165-10.04 8.159-.043-.008 15.48 1.586 18.765 2.605 2.849.904 4.189 1.886 4.82 2.485 0 0-9.307-.203-13.674-.395-4.374-.148-5.92-.12-6.927-.053-1.604.109-14.768 2.515-20.846 1.961l-.163-.116Z" stroke="#393939" stroke-width="1.2" stroke-miterlimit="10" stroke-linejoin="round"/><path d="m24.2 39.93-3.256-.333s2.253.945 1.154 2.449c0 0 2.179.843 1.59 2.563 0 0 1.866.522 1.85 2.922 0 0 2.744.706 1.921 2.752 0 0 1.82 1.104.986 2.65 0 0 2.31 1.453 1.392 3.529" stroke="#393939" stroke-width="1.2" stroke-miterlimit="10" stroke-linejoin="round"/><path d="M36.437 54.287s-6.606-1.226-7.733-1.268M33.246 51.244s-4.255-.9-5.691-.991M30.998 48.26s-4.099-.74-5.358-.803M27.673 44.922s-2.58-.317-3.815-.24M25.25 42.182s-1.783-.191-2.879-.138" stroke="#393939" stroke-width="1.2" stroke-miterlimit="10" stroke-linejoin="round"/><path d="M9.025 34.13a1.414 1.414 0 0 0 1.192 1.64 1.443 1.443 0 0 0 1.639-1.192 1.414 1.414 0 0 0-1.192-1.64c-.789-.17-1.513.396-1.639 1.192ZM3.008 34.63s1.91-2.328 2.377-2.707c0 0 1.9 1.75 2.225 1.984 0 0-1.602 1.242-2.655 3.025-.05.037-1.189-1.367-1.947-2.303Z" fill="#393939"/></svg>