<svg fill="none" xmlns="http://www.w3.org/2000/svg" viewBox="0 0 222 139"><path d="M52.878 4.305c42.405 10.028 63.221 13.363 85.941 4.918 40.5-15.055 70.783-7.533 78.308 7.8 9.406 19.167-3.293 70.205-11.758 80.903-8.466 10.698-37.155 23.847-74.545 22.51-37.39-1.337-64.668 26.299-90.3 12.927C14.892 119.99 5.956 94.36 1.488 70.067-2.98 45.774 23.97-2.531 52.878 4.305Z" stroke="#fff" stroke-width="2"/><path d="M50.748 6.043C87.17-3.406 109.164 26.83 166.87 2.027c16.792-4.251 50.487-5.343 50.487 33.632 0 42.801-16.651 84.076-65.037 85.745-65.86 2.272-85.85 14.173-114.702 4.961-24.497-7.822-41.224-27.282-33.82-55.746C12.076 38.8 30.84 11.208 50.749 6.043Z" fill="#ffcc66"/></svg>