<svg fill="none" xmlns="http://www.w3.org/2000/svg" viewBox="0 0 316 84"><path d="M1 63.104c15.58 2.982 31.752 7.475 47.73 7.069 9.334-.237 20.84-1.627 29.882-2.659 12.375-1.412 24.79-2.857 37.095-4.813 8.912-1.416 18.169-3.712 23.237-11.882 2.285-3.684 2.124-8.716-.223-12.325-3.639-5.596-12.715-6.372-18.659-5.76-8.684.896-14.545 4.99-17.2 13.373-1.086 3.43-2.02 8.05-.648 11.52 2.325 5.879 9.329 8.81 14.911 10.633 10.226 3.34 22.059 2.406 32.536 1.148 23.762-2.854 47.254-8.288 70.339-14.46" stroke="#393939" stroke-width="1.2" stroke-linecap="round" stroke-linejoin="round" stroke-dasharray="10 10"/><path d="M293.806 38.594c1.391 2.44 2.641 1 5.309 1.052 5.693.105 11.411 7.477 11.411 7.477s-1.071 1.825-5.582 5.08c-1.593 1.14-4.425 1.173-4.425 1.173s-1.053 4.187-5.742 8.18c-1.672 1.388-3.472 1.968-3.472 1.968s-3.682 1.765-9.284 1.114c-2.589-.3-6.815-2.351-6.815-2.351-6.683-3.377-8.264-10.754-8.264-10.754s1.147-2.842-1.424-3.026c-16.588-1.337-16.179-3.235-16.179-3.235.51-1.263 2.094-1.336 2.094-1.336-2.341-2.468.947-2.988.947-2.988-1.591-1.463-.141-2.756.178-2.984 0 0 .844-1.02 15.757 5.43 3.683 1.605 8.74-1.56 8.74-1.56s-1.409-1.432-.189-2.69c0 0-1.354-1.086-1.591-1.462-.456-.638-.611-1.618.288-2.292 0 0-2.736-2.346-3.322-3.436-.577-1.032-.623-2.444.026-3.197 0 0-1.755-1.377-2.332-2.41-.425-.819-.653-2.26-.435-3.123 0 0-2.906-2.674-3.78-3.718-.295-.367-1.337-2.094-1.037-3.56.201-.978.443-1.312.443-1.312-3.246-4.453-1.963-7.553-1.963-7.553.052.701 1.504 3.9 2.761 5.12 1.467 1.424 2.171 2.14 6.328 4.498 8.313 4.716 11.146 6.928 15.279 11.004 1.333 1.326 4.294 5.47 4.984 7.961.814 2.532 1.348 2.92 1.291 2.93z" fill="#F4E9D2"/><path d="M293.806 38.594c1.391 2.44 2.641 1 5.309 1.052 5.693.105 11.411 7.477 11.411 7.477s-1.071 1.825-5.582 5.08c-1.593 1.14-4.425 1.173-4.425 1.173s-1.053 4.187-5.742 8.18c-1.672 1.388-3.472 1.968-3.472 1.968s-3.682 1.765-9.284 1.114c-2.589-.3-6.815-2.351-6.815-2.351-6.683-3.377-8.264-10.754-8.264-10.754s1.147-2.842-1.424-3.026c-16.588-1.337-16.179-3.235-16.179-3.235.51-1.263 2.094-1.336 2.094-1.336-2.341-2.468.947-2.988.947-2.988-1.591-1.463-.141-2.756.178-2.984 0 0 .844-1.02 15.757 5.43 3.683 1.605 8.74-1.56 8.74-1.56s-1.409-1.432-.189-2.69c0 0-1.354-1.086-1.591-1.462-.456-.638-.611-1.618.288-2.292 0 0-2.736-2.346-3.322-3.436-.577-1.032-.623-2.444.026-3.197 0 0-1.755-1.377-2.332-2.41-.425-.819-.653-2.26-.435-3.123 0 0-2.906-2.674-3.78-3.718-.295-.367-1.337-2.094-1.037-3.56.201-.978.443-1.312.443-1.312-3.246-4.453-1.963-7.553-1.963-7.553.052.701 1.504 3.9 2.761 5.12 1.467 1.424 2.171 2.14 6.328 4.498 8.313 4.716 11.146 6.928 15.279 11.004 1.333 1.326 4.294 5.47 4.984 7.961.814 2.532 1.348 2.92 1.291 2.93z" stroke="#393939" stroke-width="1.2" stroke-miterlimit="10" stroke-linejoin="round"/><path d="M272.194 16.708s-1.629 3.155 1.428 4.918c0 0 .207 2.805.766 3.722.55.859 2.183 1.842 2.308 1.881 0 0-.892 2.21.66 3.798.847.87 2.329 1.642 2.329 1.642s-1.05 1.585-.64 3.057c.325 1.308 1.385 2.027 1.385 2.027s-.868.492-.656 1.464c.298 1.135.918 1.688 1.203 1.997M275.678 35.371s3.975 2.328 4.482 2.543M277.049 39.175s2.729 1.933 3.352 2.13M272.392 28.797s4.096 2.722 6.136 3.286M269.682 23.254s4.718 2.92 6.364 3.605" stroke="#393939" stroke-width="1.2" stroke-miterlimit="10" stroke-linejoin="round"/><path d="M265.251 14.673s1.803 2.434 3.719 4.082c1.917 1.648 4.479 2.898 4.479 2.898M259.807 43.794l-8.124.22M252.513 41.045l7.292 2.749" stroke="#393939" stroke-width="1.2" stroke-miterlimit="10" stroke-linejoin="round"/><path d="M284.204 52.646c-1.818.465-1.59 3.03-1.59 3.03-3.382.298-3.226 3.526-3.226 3.526-4.557.72-4.27 4.4-4.27 4.4-2.975 1.002-3.056 3.853-3.056 3.853-3.543 1.151-4.152 4.026-4.152 4.026-8.821 3.287-9.427 8.054-9.427 8.054.85-.608 5.548-2.297 7.889-3.2 2.34-.901 8.885-1.76 10.105-1.893 1.221-.134 6.087-.017 9.544-2.455 3.457-2.44 5.399-8.48 5.399-8.48s1.553-5.508 1.238-12.73c0 0 4.54-6.808 8.72-7.291 4.18-.484 7.712 5.401 7.712 5.401 1.733-1.752 2.474-3.051 2.474-3.051s-6.211-8.241-11.845-8.355c-4.156-.111-5.911.758-8.19 3.542-.834 1.078-2.012.732-3.163.56-2.368-.395-5.276-.467-11.226.415-5.373.791-17.06-4.692-20.375-6.591-4.615-2.64-14.423-11.198-14.423-11.198s1.528 5.552 5.26 9.336c3.723 3.727 13.036 10.65 13.094 10.64.057-.009-20.188 2.07-24.471 3.398-3.716 1.179-5.464 2.46-6.286 3.24 0 0 12.137-.264 17.832-.514 5.704-.193 7.72-.157 9.034-.07 2.092.143 19.26 3.28 27.186 2.559l.213-.152z" fill="#F4E9D2"/><path d="M284.204 52.646c-1.818.465-1.59 3.03-1.59 3.03-3.382.298-3.226 3.526-3.226 3.526-4.557.72-4.27 4.4-4.27 4.4-2.975 1.002-3.056 3.853-3.056 3.853-3.543 1.151-4.152 4.026-4.152 4.026-8.821 3.287-9.427 8.054-9.427 8.054.85-.608 5.548-2.297 7.889-3.2 2.34-.901 8.885-1.76 10.105-1.893 1.221-.134 6.087-.017 9.544-2.455 3.457-2.44 5.399-8.48 5.399-8.48s1.553-5.508 1.238-12.73c0 0 4.54-6.808 8.72-7.291 4.18-.484 7.712 5.401 7.712 5.401 1.733-1.752 2.474-3.051 2.474-3.051s-6.211-8.241-11.845-8.355c-4.156-.111-5.911.758-8.19 3.542-.834 1.078-2.012.732-3.163.56-2.368-.395-5.276-.467-11.226.415-5.373.791-17.06-4.692-20.375-6.591-4.615-2.64-14.423-11.198-14.423-11.198s1.528 5.552 5.26 9.336c3.723 3.727 13.036 10.65 13.094 10.64.057-.009-20.188 2.07-24.471 3.398-3.716 1.179-5.464 2.46-6.286 3.24 0 0 12.137-.264 17.832-.514 5.704-.193 7.72-.157 9.034-.07 2.092.143 19.26 3.28 27.186 2.559l.213-.152z" stroke="#393939" stroke-width="1.2" stroke-miterlimit="10" stroke-linejoin="round"/><path d="M283.907 52.634l4.247-.435s-2.939 1.233-1.505 3.194c0 0-2.841 1.1-2.073 3.343 0 0-2.434.68-2.412 3.81 0 0-3.579.921-2.507 3.59 0 0-2.373 1.439-1.286 3.454 0 0-3.011 1.895-1.814 4.603M267.949 71.357s8.615-1.6 10.085-1.654M272.11 67.388s5.549-1.173 7.422-1.292M275.041 63.495s5.345-.963 6.988-1.046M279.379 59.144s3.363-.414 4.975-.314M282.537 55.57s2.325-.25 3.755-.18" stroke="#393939" stroke-width="1.2" stroke-miterlimit="10" stroke-linejoin="round"/><path d="M303.699 45.07a1.845 1.845 0 01-1.554 2.137c-.981.155-1.974-.516-2.138-1.554a1.845 1.845 0 011.554-2.137c1.029-.222 1.973.515 2.138 1.553zM311.546 45.72s-2.49-3.035-3.1-3.53c0 0-2.477 2.284-2.902 2.588 0 0 2.089 1.62 3.462 3.945.067.049 1.551-1.782 2.54-3.003z" fill="#393939"/></svg>