<svg fill="none" xmlns="http://www.w3.org/2000/svg" viewBox="0 0 860 295"><path stroke="#393939" stroke-width="1.8" stroke-linecap="round" d="M.9 169.035h858.2"/><path d="M687.311 193.435c-.883 13.274-22.871 27.134-52.213 27.134-29.342 0-50.448-13.86-51.478-27.134-5.148-67.32 22.283-24.346 51.625-24.346s56.846-50.307 52.066 24.346Z" fill="#F8F3EC" stroke="#393939" stroke-width="1.8" stroke-miterlimit="10"/><path d="M635.318 201.502c29.324 0 53.096-14.02 53.096-31.313 0-17.294-23.772-31.314-53.096-31.314-29.324 0-53.095 14.02-53.095 31.314 0 17.293 23.771 31.313 53.095 31.313Z" fill="#F8F3EC" stroke="#393939" stroke-width="1.8" stroke-miterlimit="10"/><path d="M635.318 195.929c29.324 0 53.096-14.02 53.096-31.314s-23.772-31.313-53.096-31.313c-29.324 0-53.095 14.019-53.095 31.313 0 17.294 23.771 31.314 53.095 31.314ZM811.25 189.867c-.792 11.905-20.512 24.335-46.828 24.335-26.317 0-45.246-12.43-46.169-24.335-4.617-60.377 19.984-21.836 46.301-21.836 26.316 0 50.983-45.118 46.696 21.836Z" fill="#F8F3EC" stroke="#393939" stroke-width="1.8" stroke-miterlimit="10"/><path d="M764.62 197.102c26.299 0 47.62-12.574 47.62-28.084 0-15.511-21.321-28.084-47.62-28.084-26.3 0-47.62 12.573-47.62 28.084 0 15.51 21.32 28.084 47.62 28.084Z" fill="#F8F3EC" stroke="#393939" stroke-width="1.8" stroke-miterlimit="10"/><path d="M764.62 192.103c26.299 0 47.62-12.573 47.62-28.084 0-15.51-21.321-28.084-47.62-28.084-26.3 0-47.62 12.574-47.62 28.084 0 15.511 21.32 28.084 47.62 28.084ZM642.281 160.935c27.891 0 50.5-21.938 50.5-49s-22.609-49-50.5-49c-27.89 0-50.5 21.938-50.5 49s22.61 49 50.5 49Z" fill="#F8F3EC" stroke="#393939" stroke-width="1.8" stroke-miterlimit="10"/><path d="M635.281 163.935c27.891 0 50.5-21.938 50.5-49s-22.609-49-50.5-49c-27.89 0-50.5 21.938-50.5 49s22.61 49 50.5 49ZM185.414 103.857c48.553-10.505 209.393-22.334 209.393-22.334s15.36 81.832 10.328 97.016c-5.032 15.184-208.598 29.396-208.598 29.396s-28.954-100.282-11.123-104.078Z" fill="#F8F3EC" stroke="#393939" stroke-width="1.8" stroke-miterlimit="10"/><path d="m185.416 103.858 108.139 45.639L394.72 81.435" stroke="#393939" stroke-width="1.8" stroke-miterlimit="10"/><path d="M420.795 63.556c-1.414 4.358-3.888 2.474-8.133 3.439-9.057 2.052-15.749 15.721-15.749 15.721s2.315 2.56 10.597 6.266c2.922 1.292 7.458.408 7.458.408s3.067 6.339 11.879 11.164c3.131 1.663 6.198 1.994 6.198 1.994s6.466 1.599 15.197-1.296c4.037-1.336 10.108-6.012 10.108-6.012 9.555-7.607 9.637-19.912 9.637-19.912s-2.773-4.16 1.273-5.306c26.053-7.63 24.77-10.524 24.77-10.524-1.232-1.849-3.787-1.441-3.787-1.441 2.922-4.717-2.501-4.459-2.501-4.459 2.057-2.863-.689-4.449-1.273-4.707 0 0-1.686-1.35-23.37 13.89-5.351 3.784-14.476.404-14.476.404s1.776-2.755-.589-4.359c0 0 1.803-2.184 2.057-2.863.517-1.17.44-2.787-1.219-3.566 0 0 3.593-4.653 4.169-6.588.58-1.84.186-4.11-1.101-5.097 0 0 2.347-2.782 2.927-4.621.408-1.45.294-3.829-.34-5.134 0 0 3.756-5.233 4.807-7.19.349-.684 1.441-3.787.476-6.03-.643-1.495-1.141-1.948-1.141-1.948 3.71-8.188.634-12.714.634-12.714.15 1.137-1.11 6.728-2.714 9.093-1.871 2.76-2.759 4.137-8.618 9.28-11.716 10.284-15.509 14.756-20.76 22.635-1.69 2.56-5.048 10.157-5.324 14.367-.462 4.313-1.187 5.11-1.092 5.106Z" fill="#F8F3EC"/><path d="M420.795 63.556c-1.414 4.358-3.888 2.474-8.133 3.439-9.057 2.052-15.749 15.721-15.749 15.721s2.315 2.56 10.597 6.266c2.922 1.292 7.458.408 7.458.408s3.067 6.339 11.879 11.164c3.131 1.663 6.198 1.994 6.198 1.994s6.466 1.599 15.197-1.296c4.037-1.336 10.108-6.012 10.108-6.012 9.555-7.607 9.637-19.912 9.637-19.912s-2.773-4.16 1.273-5.306c26.053-7.63 24.77-10.524 24.77-10.524-1.232-1.849-3.787-1.441-3.787-1.441 2.922-4.717-2.501-4.459-2.501-4.459 2.057-2.863-.689-4.449-1.273-4.707 0 0-1.686-1.35-23.37 13.89-5.351 3.784-14.476.404-14.476.404s1.776-2.755-.589-4.359c0 0 1.803-2.184 2.057-2.863.517-1.17.44-2.787-1.219-3.566 0 0 3.593-4.653 4.169-6.588.58-1.84.186-4.11-1.101-5.097 0 0 2.347-2.782 2.927-4.621.408-1.45.294-3.829-.34-5.134 0 0 3.756-5.233 4.807-7.19.349-.684 1.441-3.787.476-6.03-.643-1.495-1.141-1.948-1.141-1.948 3.71-8.188.634-12.714.634-12.714.15 1.137-1.11 6.728-2.714 9.093-1.871 2.76-2.759 4.137-8.618 9.28-11.716 10.284-15.509 14.756-20.76 22.635-1.69 2.56-5.048 10.157-5.324 14.367-.462 4.313-1.187 5.11-1.092 5.106Z" stroke="#393939" stroke-width="1.8" stroke-miterlimit="10" stroke-linejoin="round"/><path d="M448.066 21.443s3.648 4.499-.652 8.327c0 0 .598 4.55.009 6.198-.594 1.554-2.877 3.666-3.063 3.77 0 0 2.157 3.235.204 6.284-1.065 1.672-3.176 3.394-3.176 3.394s2.202 2.184 2.034 4.671c-.086 2.197-1.541 3.697-1.541 3.697s1.55.498 1.532 2.12c-.1 1.912-.907 3-1.26 3.589" stroke="#393939" stroke-width="1.8" stroke-miterlimit="10" stroke-linejoin="round"/><path d="M448.682 52.406s-5.577 5.034-6.316 5.546M447.753 58.935s-3.72 3.992-4.649 4.513M451.754 40.817s-5.641 5.704-8.713 7.28M454.246 31.066s-6.57 6.226-8.971 7.866M458.482 15.893s-2.075 4.485-4.59 7.752c-2.514 3.267-6.193 6.112-6.193 6.112M476.822 60.603l13.048-2.338M487.56 53.798l-10.738 6.805" stroke="#393939" stroke-width="1.8" stroke-miterlimit="10" stroke-linejoin="round"/><path d="M440.785 82.821c3.058.14 3.543 4.313 3.543 4.313 5.5-.643 6.32 4.563 6.32 4.563 7.517-.358 8.278 5.614 8.278 5.614 5.084.616 6.157 5.142 6.157 5.142 6.04.667 7.965 5.057 7.965 5.057 15.178 2.329 17.725 9.741 17.725 9.741-1.559-.688-9.624-1.83-13.661-2.496-4.037-.666-14.775.131-16.768.321-1.994.19-9.728 1.989-16.057-.761-6.33-2.751-11.431-11.758-11.431-11.758s-4.304-8.282-6.193-19.922c0 0-9.506-9.37-16.343-8.758-6.837.611-10.529 11.181-10.529 11.181-3.349-2.224-4.962-4.055-4.962-4.055s7.191-15.218 16.153-17.266c6.601-1.554 9.691-.748 14.254 2.945 1.69 1.445 3.457.503 5.237-.154 3.652-1.413 8.274-2.492 18.069-3.053 8.844-.517 25.694-13.144 30.361-17.276 6.498-5.744 19.329-22.662 19.329-22.662s-.603 9.374-5.31 16.655c-4.713 7.186-17.295 21.326-17.39 21.33-.095.005 32.93-3.379 40.211-2.676 6.325.652 9.542 2.12 11.114 3.094 0 0-19.474 3.597-28.653 5.083-9.175 1.581-12.383 2.306-14.453 2.882-3.294.92-29.677 11.616-42.576 13.088l-.39-.172Z" fill="#F8F3EC"/><path d="M440.785 82.821c3.058.14 3.543 4.313 3.543 4.313 5.5-.643 6.32 4.563 6.32 4.563 7.517-.358 8.278 5.614 8.278 5.614 5.084.616 6.157 5.142 6.157 5.142 6.04.667 7.965 5.057 7.965 5.057 15.178 2.329 17.725 9.741 17.725 9.741-1.559-.688-9.624-1.83-13.661-2.496-4.037-.666-14.775.131-16.768.321-1.994.19-9.728 1.989-16.057-.761-6.33-2.751-11.431-11.758-11.431-11.758s-4.304-8.282-6.193-19.922c0 0-9.506-9.37-16.343-8.758-6.837.611-10.529 11.181-10.529 11.181-3.349-2.224-4.962-4.055-4.962-4.055s7.191-15.218 16.153-17.266c6.601-1.554 9.691-.748 14.254 2.945 1.69 1.445 3.457.503 5.237-.154 3.652-1.413 8.274-2.492 18.069-3.053 8.844-.517 25.694-13.144 30.361-17.276 6.498-5.744 19.329-22.662 19.329-22.662s-.603 9.374-5.31 16.655c-4.713 7.186-17.295 21.326-17.39 21.33-.095.005 32.93-3.379 40.211-2.676 6.325.652 9.542 2.12 11.114 3.094 0 0-19.474 3.597-28.653 5.083-9.175 1.581-12.383 2.306-14.453 2.882-3.294.92-29.677 11.616-42.576 13.088l-.39-.172Z" stroke="#393939" stroke-width="1.8" stroke-miterlimit="10" stroke-linejoin="round"/><path d="m441.256 82.703-6.927.712s5.101.996 3.461 4.603c0 0 4.902.816 4.418 4.653 0 0 4.113.281 5.115 5.288 0 0 6.021.285 5.192 4.902 0 0 4.268 1.513 3.198 5.093 0 0 5.437 2.03 4.422 6.751" stroke="#393939" stroke-width="1.8" stroke-miterlimit="10" stroke-linejoin="round"/><path d="M472.943 107.324s-14.29.299-16.655.698M464.983 102.363s-9.252-.037-12.283.394M459.012 97.116s-8.858.231-11.508.643M450.644 91.602s-5.509.453-8.051 1.146M444.414 86.94s-3.797.371-6.058.956" stroke="#393939" stroke-width="1.8" stroke-miterlimit="10" stroke-linejoin="round"/><path d="M407.139 77.175c.082 1.713 1.477 2.981 3.19 2.9 1.617-.077 2.981-1.477 2.9-3.19-.082-1.712-1.477-2.981-3.19-2.9-1.717-.013-2.981 1.478-2.9 3.19ZM394.82 80.813s2.972-5.672 3.783-6.665c0 0 4.712 2.828 5.491 3.172 0 0-2.8 3.28-4.223 7.449-.09.1-3.067-2.334-5.051-3.956Z" fill="#393939"/><path d="M441.309 80.657c3.058.141 3.543 4.314 3.543 4.314 5.5-.643 6.32 4.563 6.32 4.563 7.516-.358 8.278 5.613 8.278 5.613 5.083.616 6.157 5.143 6.157 5.143 6.039.666 7.965 5.056 7.965 5.056 15.178 2.329 17.724 9.742 17.724 9.742-1.559-.689-9.623-1.831-13.66-2.497-4.037-.666-14.775.131-16.769.321-1.993.191-9.727 1.989-16.057-.761-6.329-2.75-11.431-11.758-11.431-11.758s-4.304-8.282-6.193-19.922c0 0-9.505-9.37-16.342-8.758-6.837.612-10.53 11.182-10.53 11.182-3.348-2.225-4.961-4.055-4.961-4.055s7.191-15.219 16.152-17.267c6.602-1.554 9.692-.747 14.254 2.946 1.69 1.445 3.457.502 5.238-.154 3.652-1.414 8.273-2.492 18.069-3.054 8.844-.516 25.694-13.143 30.361-17.275 6.497-5.745 19.328-22.663 19.328-22.663s-.602 9.374-5.31 16.655c-4.712 7.186-17.294 21.326-17.39 21.33-.095.006 32.93-3.378 40.211-2.676 6.325.653 9.542 2.12 11.114 3.095 0 0-19.473 3.597-28.653 5.083-9.174 1.58-12.382 2.306-14.453 2.881-3.294.92-29.677 11.616-42.576 13.089l-.389-.172Z" fill="#99D4CA" style="mix-blend-mode:darken"/><path d="M577.427 196.997s10.875-7.198 12.944-7.848c2.069-.65 9.223-3.171 15.333-3.108 4.027.042 9.35.084 10.2 1.525 2.047 3.469-.247 4.896-.2 8.405.016 1.231-1.945 2.691-2.848 4.602-.669 1.415-.985 3.033-1.405 3.753-.609 1.045-.982.809-1.434 1.471-.943 1.379-.503 3.062-1.247 3.825-.456.468-2.09 1.153-3.538 2.027-1.794 1.084-2.802 3.921-4.442 3.399-.313-.099-.666-.136-1.041-.152-1.122-.047-2.45.095-3.542-.824-1.471-1.226-7.126-4.678-8.378-5.076-1.252-.398-5.448-3.455-7.314-3.223-1.867.233-1.6.022-2.225-.115" fill="#F8F3EC"/><path d="M577.427 196.997s10.875-7.198 12.944-7.848c2.069-.65 9.223-3.171 15.333-3.108 4.027.042 9.35.084 10.2 1.525 2.047 3.469-.247 4.896-.2 8.405.016 1.231-1.945 2.691-2.848 4.602-.669 1.415-.985 3.033-1.405 3.753-.609 1.045-.982.809-1.434 1.471-.943 1.379-.503 3.062-1.247 3.825-.456.468-2.09 1.153-3.538 2.027-1.794 1.084-2.802 3.921-4.442 3.399-.313-.099-.666-.136-1.041-.152-1.122-.047-2.45.095-3.542-.824-1.471-1.226-7.126-4.678-8.378-5.076-1.252-.398-5.448-3.455-7.314-3.223-1.867.233-1.6.022-2.225-.115" stroke="#393939" stroke-width="1.8" stroke-miterlimit="10"/><path d="M573.55 197.048s-11.061-6.907-13.146-7.502c-2.086-.594-9.305-2.925-15.41-2.7-4.025.148-9.345.331-10.156 1.794-1.955 3.523.376 4.888.423 8.397.016 1.231 2.015 2.639 2.968 4.525.706 1.397 1.065 3.006 1.504 3.715.637 1.029 1.003.782 1.473 1.432.978 1.354.584 3.048 1.348 3.791.468.456 2.12 1.097 3.59 1.933 1.822 1.035 2.905 3.845 4.53 3.28.311-.108.663-.154 1.037-.18 1.121-.077 2.452.03 3.52-.918 1.437-1.264 6.999-4.865 8.24-5.296 1.24-.431 5.354-3.598 7.226-3.415 1.872.182 1.599-.022 2.221-.175" fill="#F8F3EC"/><path d="M573.55 197.048s-11.061-6.907-13.146-7.502c-2.086-.594-9.305-2.925-15.41-2.7-4.025.148-9.345.331-10.156 1.794-1.955 3.523.376 4.888.423 8.397.016 1.231 2.015 2.639 2.968 4.525.706 1.397 1.065 3.006 1.504 3.715.637 1.029 1.003.782 1.473 1.432.978 1.354.584 3.048 1.348 3.791.468.456 2.12 1.097 3.59 1.933 1.822 1.035 2.905 3.845 4.53 3.28.311-.108.663-.154 1.037-.18 1.121-.077 2.452.03 3.52-.918 1.437-1.264 6.999-4.865 8.24-5.296 1.24-.431 5.354-3.598 7.226-3.415 1.872.182 1.599-.022 2.221-.175" stroke="#393939" stroke-width="1.8" stroke-miterlimit="10"/><path d="M576.857 222.721c.328 2.755 1.737 4.323 2.902 4.432 2.341.219 3.507 3.023 6.286 1.388 1.443-.849 1.725-1.367 2.993-1.947 1.974-.902 3.077.17 4.495-.925.933-.721 1.869-2.572 3.523-3.216 3.569-1.391 1.76-4.835 2.693-7.557" fill="#F8F3EC"/><path d="M576.857 222.721c.328 2.755 1.737 4.323 2.902 4.432 2.341.219 3.507 3.023 6.286 1.388 1.443-.849 1.725-1.367 2.993-1.947 1.974-.902 3.077.17 4.495-.925.933-.721 1.869-2.572 3.523-3.216 3.569-1.391 1.76-4.835 2.693-7.557" stroke="#393939" stroke-width="1.8" stroke-miterlimit="10"/><path d="M574.663 223.071c-.255 2.763-1.484 4.045-2.646 4.184-2.334.281-3.426 3.115-6.247 1.554-1.465-.81-1.761-1.32-3.044-1.866-1.997-.85-3.071.251-4.518-.806-.952-.696-1.936-2.521-3.606-3.121-3.606-1.296-1.888-4.787-2.893-7.483" fill="#F8F3EC"/><path d="M574.663 223.071c-.255 2.763-1.484 4.045-2.646 4.184-2.334.281-3.426 3.115-6.247 1.554-1.465-.81-1.761-1.32-3.044-1.866-1.997-.85-3.071.251-4.518-.806-.952-.696-1.936-2.521-3.606-3.121-3.606-1.296-1.888-4.787-2.893-7.483" stroke="#393939" stroke-width="1.8" stroke-miterlimit="10"/><path d="M573.244 198.193s-1.328 1.678-1.32 2.3c.009.622-.073 2.325.751 6.442.823 4.118-1.005 7.275-.548 10.381.456 3.085 3.568 7.401 3.568 7.401s2.301-3.445 3.088-6.775c.787-3.33.37-3.437-.081-6.128-.451-2.691-.872-3.1-.881-3.723-.008-.622.51-2.309.771-4.574.186-1.662.305-2.079.226-3.323-.079-1.244-1.123-1.645-1.342-2.472-.218-.827.189-1.454-.24-2.486-.43-1.032-3.133-1.203-3.64-.263-.507.94-.507.94-.388 2.08.119 1.139.036 1.14.036 1.14Z" fill="#F8F3EC" stroke="#393939" stroke-width="1.8" stroke-miterlimit="10"/><path d="M681 112.935c0 28.719-22.61 52-50.5 52-11.818 0-22.348-6.416-30.952-13.419-11.7-9.524-19.548-22.031-19.548-38.581 0-28.719 22.61-52 50.5-52 20.328 0 35.433 11.809 43.441 29.635 2.979 6.632 7.059 14.578 7.059 22.365Z" fill="#E4987F" style="mix-blend-mode:darken"/><path d="M340.445 241.154c-6.709-.655-11.584.221-17.671-3.274-8.96-5.144-13.594-13.838-13.594-22.696 0-9.167.877-17.46 1.316-19.642.438-2.182-2.193-6.591-1.316-9.21.877-2.575 5.569-9.995 7.192-13.487 1.622-3.492 1.096-4.539 8.375-8.599 7.279-4.059 13.374-7.987 17.759-8.424 4.385-.436 4.824-4.801 11.401-5.674 6.578-.873 13.682 1.266 18.461.611 4.78-.611 10.568 4.976 12.717 7.638 2.149 2.663 10.962 6.155 14.865 8.119 3.903 1.964 7.016 10.257 9.209 12.876 2.192 2.619 7.893 5.238 7.893 9.603 0 4.365 1.315 12.658 2.631 15.713 1.315 3.055 4.823 13.531 1.754 14.84-4.732 2.019-5.909 3.036-6.315 7.682" fill="#F8F3EC"/><path d="M340.445 241.154c-6.709-.655-11.584.221-17.671-3.274-8.96-5.144-13.594-13.838-13.594-22.696 0-9.167.877-17.46 1.316-19.642.438-2.182-2.193-6.591-1.316-9.21.877-2.575 5.569-9.995 7.192-13.487 1.622-3.492 1.096-4.539 8.375-8.599 7.279-4.059 13.374-7.987 17.759-8.424 4.385-.436 4.824-4.801 11.401-5.674 6.578-.873 13.682 1.266 18.461.611 4.78-.611 10.568 4.976 12.717 7.638 2.149 2.663 10.962 6.155 14.865 8.119 3.903 1.964 7.016 10.257 9.209 12.876 2.192 2.619 7.893 5.238 7.893 9.603 0 4.365 1.315 12.658 2.631 15.713 1.315 3.055 4.823 13.531 1.754 14.84-4.732 2.019-5.909 3.036-6.315 7.682" stroke="#393939" stroke-width="1.8" stroke-miterlimit="10"/><path d="M311.172 183.237c6.037 3.19 5.218 9.744 5.218 12.365-.043 2.622.819 9.176 5.563 13.108 4.744 3.932 3.498 8.87 7.547 13.225 3.831 4.122 11.86 7.747 11.86 8.184 0 .437 3.838 5.243 3.838 5.243" fill="#F8F3EC"/><path d="M311.172 183.237c6.037 3.19 5.218 9.744 5.218 12.365-.043 2.622.819 9.176 5.563 13.108 4.744 3.932 3.498 8.87 7.547 13.225 3.831 4.122 11.86 7.747 11.86 8.184 0 .437 3.838 5.243 3.838 5.243" stroke="#393939" stroke-width="1.8" stroke-miterlimit="10"/><path d="M317.688 169.976c4.005 4.348 3.127 9.814 7.526 8.785 2.15-.504 2.779-2.053 4.402-3.55 2.698-2.489 4.17-5.776 6.162-7.099 2.316-1.538 4.487-1.377 6.602-2.662 2.116-1.285 2.813-2.686 4.886-4.037 4.267-2.781 7.418-2.876 12.281-4.393 4.42-1.379 6.816-3.282 11.444-3.105 3.001.114 11.509 1.52 11.509 1.52" fill="#F8F3EC"/><path d="M317.688 169.976c4.005 4.348 3.127 9.814 7.526 8.785 2.15-.504 2.779-2.053 4.402-3.55 2.698-2.489 4.17-5.776 6.162-7.099 2.316-1.538 4.487-1.377 6.602-2.662 2.116-1.285 2.813-2.686 4.886-4.037 4.267-2.781 7.418-2.876 12.281-4.393 4.42-1.379 6.816-3.282 11.444-3.105 3.001.114 11.509 1.52 11.509 1.52" stroke="#393939" stroke-width="1.8" stroke-miterlimit="10"/><path d="M361 178.93c4.046-3.018 3.676-5.38 6.199-8.704 2.115-2.788 3.001-4.651 5.596-6.998 2.258-2.043 3.874-3.499 6.457-4.374 2.582-.875 5.639-.919 5.639-.919" fill="#F8F3EC"/><path d="M361 178.93c4.046-3.018 3.676-5.38 6.199-8.704 2.115-2.788 3.001-4.651 5.596-6.998 2.258-2.043 3.874-3.499 6.457-4.374 2.582-.875 5.639-.919 5.639-.919" stroke="#393939" stroke-width="1.8" stroke-miterlimit="10"/><path d="M383.568 182.513c.263-2.844 1.916-3.397 3.759-4.999 3.155-2.74 5.909-3.137 10.054-3.663 3.633-.461 5.085.128 8.62 1.084" fill="#F8F3EC"/><path d="m387.327 177.514-.59-.679.59.679Zm10.054-3.663-.113-.893.113.893Zm8.385 1.953a.9.9 0 1 0 .47-1.737l-.47 1.737Zm-21.301 6.792c.112-1.215.501-1.872 1.034-2.42.289-.296.631-.57 1.049-.891.405-.312.883-.668 1.37-1.091l-1.181-1.359c-.435.378-.855.691-1.286 1.023-.42.322-.853.664-1.241 1.062-.819.84-1.388 1.882-1.538 3.511l1.793.165Zm3.453-4.402c2.932-2.548 5.44-2.925 9.576-3.45l-.226-1.786c-4.155.527-7.155.944-10.531 3.877l1.181 1.359Zm9.576-3.45c3.428-.435 4.711.097 8.272 1.06l.47-1.737c-3.508-.95-5.131-1.596-8.968-1.109l.226 1.786Z" fill="#393939"/><path d="M396.002 193.623c1.497-1.688 4.699-5.889 6.905-6.976 2.206-1.087 4.632-1.237 8.092-.712 1.966.299 5.5.712 5.5.712" fill="#F8F3EC"/><path d="M396.002 193.623c1.497-1.688 4.699-5.889 6.905-6.976 2.206-1.087 4.632-1.237 8.092-.712 1.966.299 5.5.712 5.5.712" stroke="#393939" stroke-width="1.8" stroke-miterlimit="10"/><path d="M396 206.435c2 .5 9.5 1 12 1 3 0 6.314 5.257 9 7 2.306 1.497 5.154 3.418 5.154 3.418" fill="#F8F3EC"/><path d="M396 206.435c2 .5 9.5 1 12 1 3 0 6.314 5.257 9 7 2.306 1.497 5.154 3.418 5.154 3.418" stroke="#393939" stroke-width="1.8" stroke-miterlimit="10"/><path d="M360.197 236.798c-4.468-.567-13.27-2.926-16.853 0-3.583 2.926-3.229 11.704-6.237 12.795-3.052 1.048-3.937.612-6.149 4.979-2.211 4.367-5.308 13.1-5.308 17.031 0 3.93 3.539 14.41 3.097 17.031-.443 2.62-1.327 4.803 1.769 4.367 3.096-.437 5.75 1.746 9.289-1.747 3.539-3.494 19.905-10.918 22.117-17.468 2.212-6.55 4.866-9.17 4.423-14.411-.442-5.24-1.238-6.463.045-8.035 1.282-1.572 2.698-2.751 2.698-2.751" fill="#C9B6D7"/><path d="M360.197 236.798c-4.468-.567-13.27-2.926-16.853 0-3.583 2.926-3.229 11.704-6.237 12.795-3.052 1.048-3.937.612-6.149 4.979-2.211 4.367-5.308 13.1-5.308 17.031 0 3.93 3.539 14.41 3.097 17.031-.443 2.62-1.327 4.803 1.769 4.367 3.096-.437 5.75 1.746 9.289-1.747 3.539-3.494 19.905-10.918 22.117-17.468 2.212-6.55 4.866-9.17 4.423-14.411-.442-5.24-1.238-6.463.045-8.035 1.282-1.572 2.698-2.751 2.698-2.751" stroke="#393939" stroke-width="1.8" stroke-miterlimit="10"/><path d="M352.855 235.362c-5.391-5.721-3.506-4.533-8.109-8.89-4.602-4.313-6.355-2.112-6.793-8.274-.438-6.161-.438-9.682-3.068-11.882-2.63-2.201-3.901-.661-1.271-6.47 2.63-5.809 6.969-8.934 8.284-13.335 1.314-4.401 1.095-6.425 8.678-6.073 7.582.352 18.496-4.489 24.632-3.609 6.136.88 11.834 11.442 16.216 13.643 4.383 2.2 9.205 10.562 8.766 11.883-.438 1.32-6.203 6.459-9.686 11.002-3.357 4.379-7.451 8.934-7.845 11.751-.439 2.773-2.411 4.005-2.411 4.005" stroke="#393939" stroke-width="1.8" stroke-miterlimit="10"/><path d="M359.728 237.534c-9.627 2.185-15.184 5.507-17.197 10.402-2.056 4.895-7.307 11.013-6.432 19.317s-5.251 13.986 1.313 11.8c6.563-2.185 10.939-.437 16.628-3.059 3.498-1.613 4.171-8.777 6.959-14.059 2.896-5.488 6.5-14.5 7.5-13.5" fill="#F8F3EC"/><path d="M359.728 237.534c-9.627 2.185-15.184 5.507-17.197 10.402-2.056 4.895-7.307 11.013-6.432 19.317s-5.251 13.986 1.313 11.8c6.563-2.185 10.939-.437 16.628-3.059 3.498-1.613 4.171-8.777 6.959-14.059 2.896-5.488 6.5-14.5 7.5-13.5" stroke="#393939" stroke-width="1.8" stroke-miterlimit="10"/><path d="M361.751 241.935c-6.51 4.115-11.265 6.968-11.435 10.479-.17 3.511-2.264 6.413-2.264 6.413-.736.603 6.51-1.421 7.982-3.286 1.471-1.865.339-3.456 3.736-4.005 3.396-.549 6.34-4.992 6.227-6.035" fill="#C9B6D7"/><path d="M361.751 241.935c-6.51 4.115-11.265 6.968-11.435 10.479-.17 3.511-2.264 6.413-2.264 6.413-.736.603 6.51-1.421 7.982-3.286 1.471-1.865.339-3.456 3.736-4.005 3.396-.549 6.34-4.992 6.227-6.035" stroke="#393939" stroke-width="1.8" stroke-miterlimit="10"/><path d="M385.508 232.622c2.795-.043 8.909 1.685 11.092.821 2.184-.864 9.346-2.506 13.407-.821 4.062 1.685 12.228 5.572 14.281 7.948 2.052 2.376 9.083 8.682 9.258 8.984.175.303-5.066 1.167-5.939 3.758-.874 2.592-7.599 4.795-9.914 5.184-2.314.431-11.485 3.023-15.416 1.295-3.93-1.727-6.55-3.023-8.297-5.615-1.747-2.592-7.774-3.455-8.472-5.399-.699-1.944-2.664-3.715-2.664-3.715s0 1.555.655 6.134c.655 4.578 8.516 5.356 9.826 7.084 1.31 1.727 4.804 2.591 5.633 5.01.83 2.419 17.513 4.924 22.753 5.356 5.241.432 9.608-6.911 13.975-7.775 4.367-.864 4.367-4.751 10.044-5.615 5.678-.864-.873-3.456-2.62-7.343-1.747-3.888-8.734-8.207-14.411-13.39-5.678-5.184-5.678-4.752-10.569-6.566-4.891-1.814-8.647 1.382-12.359 1.296-3.712-.086-7.206-1.641-10.743-1.21-3.537.432-5.677 2.16-11.573 2.376" fill="#C9B6D7"/><path d="M385.508 232.622c2.795-.043 8.909 1.685 11.092.821 2.184-.864 9.346-2.506 13.407-.821 4.062 1.685 12.228 5.572 14.281 7.948 2.052 2.376 9.083 8.682 9.258 8.984.175.303-5.066 1.167-5.939 3.758-.874 2.592-7.599 4.795-9.914 5.184-2.314.431-11.485 3.023-15.416 1.295-3.93-1.727-6.55-3.023-8.297-5.615-1.747-2.592-7.774-3.455-8.472-5.399-.699-1.944-2.664-3.715-2.664-3.715s0 1.555.655 6.134c.655 4.578 8.516 5.356 9.826 7.084 1.31 1.727 4.804 2.591 5.633 5.01.83 2.419 17.513 4.924 22.753 5.356 5.241.432 9.608-6.911 13.975-7.775 4.367-.864 4.367-4.751 10.044-5.615 5.678-.864-.873-3.456-2.62-7.343-1.747-3.888-8.734-8.207-14.411-13.39-5.678-5.184-5.678-4.752-10.569-6.566-4.891-1.814-8.647 1.382-12.359 1.296-3.712-.086-7.206-1.641-10.743-1.21-3.537.432-5.677 2.16-11.573 2.376" stroke="#393939" stroke-width="1.8" stroke-miterlimit="10"/><path d="M385 241.469c5.469 2.689 9.697 1.046 12.27 4.407 2.574 3.362 3.998 4.482 7.675 3.922 3.676-.56 5.055-1.681 5.055-1.681s-2.254-2.319-3.86-3.529c-3.205-2.415-5.32-4.522-9.008-5.571-2.205-.628-3.217.168-5.744-1.009-2.528-1.232-6.388-2.073-6.388-2.073" fill="#C9B6D7"/><path d="M385 241.469c5.469 2.689 9.697 1.046 12.27 4.407 2.574 3.362 3.998 4.482 7.675 3.922 3.676-.56 5.055-1.681 5.055-1.681s-2.254-2.319-3.86-3.529c-3.205-2.415-5.32-4.522-9.008-5.571-2.205-.628-3.217.168-5.744-1.009-2.528-1.232-6.388-2.073-6.388-2.073" stroke="#393939" stroke-width="1.8" stroke-miterlimit="10"/><path d="M364.227 231.322c-3.492.433-4.365 1.3-4.365 3.467s-1.31 6.068 3.056 7.802c4.365 1.733 4.365 6.934 8.293 6.501 3.929-.433 3.929.433 7.858-2.601 3.929-3.033 4.714-.39 5.413-6.284.698-5.895 1.135-8.885-1.484-10.185-2.62-1.301-8.644-1.041-10.652-1.171-2.008-.13-8.119 2.471-8.119 2.471Z" fill="#F8F3EC" stroke="#393939" stroke-width="1.8" stroke-miterlimit="10"/><path d="M337.5 194.435c20.822-2.659 36.108-4.924 49-8" stroke="#393939" stroke-width="1.8" stroke-miterlimit="10"/><path d="M379.499 152.436c-8 0-20.898 2.421-28 5.999-4.104 2.068-5.444 6.5-10.5 6.5-13.807 0-8.82 15.073-16 12-4.531-1.939-8.815-4.912-7-10.5 7-4 20.045-12.5 28-12.5 4-8.5 33.5-6.194 33.5-1.499ZM310 183.435c1.203-.402 4.347 1.747 5.5 6.5 1.551 6.395 1.26 16.288 4.499 19.5 3.263 3.236 4.396 2.705 6.001 7.5 4.382 13.093 17.082 8.029 16.446 15.813-.401 4.912.93 8.135-4.946 8.187-7 0-16.418-2.344-23-8.187-13.339-11.841-5.5-47.313-4.5-49.313ZM399.998 165.935c7.795 7.5 7.001 7.5-1.499 7.5-13.804.281-8.259 9.427-15.5 6.5-4.569-1.847-10-3.5-18-3.5 2.086-6.682 10.361-20.181 19-18.5 8.4 1.635 14.388 6.45 15.999 8ZM416.694 188.505c0 10 5 23 5 28.5-11.5-8.5-16.5-10.5-24-10.5-2.592 0 4.022-2.355 2.5-5.395-1.37-2.739-2.5-5.105-4-6.105 2.087-6.682 4.233-11.077 12.872-9.396 8.4 1.635 7.628.66 7.628 2.896Z" fill="#C9B6D7" style="mix-blend-mode:darken"/><path d="M579.14 195.043s10.875-7.198 12.943-7.848c2.069-.65 9.224-3.171 15.333-3.108 4.028.042 9.351.084 10.201 1.525 2.047 3.47-.247 4.896-.2 8.405.016 1.231-1.945 2.691-2.848 4.602-.669 1.415-.985 3.034-1.405 3.753-.609 1.046-.982.809-1.434 1.472-.943 1.379-.503 3.062-1.247 3.824-.456.468-2.09 1.153-3.538 2.028-1.794 1.083-2.802 3.92-4.442 3.399-.313-.1-.667-.137-1.041-.153-1.122-.047-2.45.095-3.543-.824-1.47-1.225-7.125-4.677-8.377-5.076-1.252-.398-5.448-3.454-7.314-3.222-1.867.232-1.6.021-2.225-.116M572.653 195.043s-10.875-7.198-12.944-7.848c-2.068-.65-9.223-3.171-15.332-3.108-4.028.042-9.351.084-10.201 1.525-2.047 3.47.247 4.896.2 8.405-.016 1.231 1.945 2.691 2.848 4.602.669 1.415.985 3.034 1.405 3.753.609 1.046.982.809 1.434 1.472.943 1.379.503 3.062 1.247 3.824.456.468 2.09 1.153 3.538 2.028 1.794 1.083 2.802 3.92 4.442 3.399.313-.1.667-.137 1.041-.153 1.122-.047 2.45.095 3.542-.824 1.471-1.225 7.126-4.677 8.378-5.076 1.252-.398 5.448-3.454 7.314-3.222 1.867.232 1.6.021 2.225-.116" fill="#F6C5D5" style="mix-blend-mode:darken"/><path d="M92.587 171.095c-5.617 5.945-7.168 5.494-8.248 15.479-1.079 9.985-2.588 25.927.195 27.869 2.783 1.942 8.346 4.517 9.571 4.53 1.198.009 2.33-.103 1.792-2.133s-3.468-6.948-3.377-9.276c.069-2.358.23-3.449 1.996-5.976s4.111-3.297 6.802-2.622c2.69.675 5.18 2.713 5.284 5.794.105 3.081.177 4.485-.903 6.137-1.08 1.653-4.901 4.49-5.95 6.12-1.049 1.629-1.057 3.578.268 4.052 1.326.474 4.833.711 7.591 1.117s5.331-1.723 6.584-2.654c1.252-.93 3.1-4.552 4.754-7.66 2.552-4.796 3.928-7.614 5.243-12.884.916-3.667 1.642-7.366 1.409-9.574-.229-2.236-.447-3.215-.447-3.215" fill="#F8F3EC"/><path d="M92.587 171.095c-5.617 5.945-7.168 5.494-8.248 15.479-1.079 9.985-2.588 25.927.195 27.869 2.783 1.942 8.346 4.517 9.571 4.53 1.198.009 2.33-.103 1.792-2.133s-3.468-6.948-3.377-9.276c.069-2.358.23-3.449 1.996-5.976s4.111-3.297 6.802-2.622c2.69.675 5.18 2.713 5.284 5.794.105 3.081.177 4.485-.903 6.137-1.08 1.653-4.901 4.49-5.95 6.12-1.049 1.629-1.057 3.578.268 4.052 1.326.474 4.833.711 7.591 1.117s5.331-1.723 6.584-2.654c1.252-.93 3.1-4.552 4.754-7.66 2.552-4.796 3.928-7.614 5.243-12.884.916-3.667 1.642-7.366 1.409-9.574-.229-2.236-.447-3.215-.447-3.215" stroke="#393939" stroke-width="1.8" stroke-miterlimit="10"/><path d="M95.06 179.898c-4.949 7.076-6.638 6.843-6.23 17.441.407 10.598 1.281 27.485 4.484 29.086 3.203 1.602 9.404 3.436 10.685 3.261 1.252-.174 2.417-.465 1.543-2.503-.873-2.039-4.687-6.726-4.949-9.172-.291-2.475-.291-3.639 1.164-6.551 1.456-2.912 3.785-4.076 6.697-3.785 2.912.291 5.823 2.038 6.405 5.241.583 3.202.874 4.658 0 6.551-.873 1.892-4.425 5.444-5.27 7.308-.844 1.863-.553 3.901.903 4.193 1.456.291 5.154 0 8.094 0 2.941 0 5.299-2.621 6.464-3.785 1.165-1.165 2.536-5.234 3.785-8.735 1.927-5.403 2.93-8.559 3.494-14.267.392-3.972.582-7.949 0-10.22-.582-2.3-.961-3.29-.961-3.29" fill="#F8F3EC"/><path d="M95.06 179.898c-4.949 7.076-6.638 6.843-6.23 17.441.407 10.598 1.281 27.485 4.484 29.086 3.203 1.602 9.404 3.436 10.685 3.261 1.252-.174 2.417-.465 1.543-2.503-.873-2.039-4.687-6.726-4.949-9.172-.291-2.475-.291-3.639 1.164-6.551 1.456-2.912 3.785-4.076 6.697-3.785 2.912.291 5.823 2.038 6.405 5.241.583 3.202.874 4.658 0 6.551-.873 1.892-4.425 5.444-5.27 7.308-.844 1.863-.553 3.901.903 4.193 1.456.291 5.154 0 8.094 0 2.941 0 5.299-2.621 6.464-3.785 1.165-1.165 2.536-5.234 3.785-8.735 1.927-5.403 2.93-8.559 3.494-14.267.392-3.972.582-7.949 0-10.22-.582-2.3-.961-3.29-.961-3.29" stroke="#393939" stroke-width="1.8" stroke-miterlimit="10"/><path d="M103.999 153.694c-5.299-6.754-10.248-8.501-14.907-10.248-4.659-1.747-11.064-2.038-11.938-1.456-.873.582-2.62 2.911-2.038 6.988.583 4.076 4.659 16.013 7.28 18.925 2.62 2.911 4.89 5.474 7.104 6.085 2.212.612 3.814.553 3.814.553" fill="#F8F3EC"/><path d="M103.999 153.694c-5.299-6.754-10.248-8.501-14.907-10.248-4.659-1.747-11.064-2.038-11.938-1.456-.873.582-2.62 2.911-2.038 6.988.583 4.076 4.659 16.013 7.28 18.925 2.62 2.911 4.89 5.474 7.104 6.085 2.212.612 3.814.553 3.814.553" stroke="#393939" stroke-width="1.8" stroke-miterlimit="10"/><path d="M118.412 150.462c1.194-8.472 4.63-12.461 7.774-16.304 3.174-3.844 8.56-7.308 9.608-7.221 1.048.058 3.727 1.223 5.27 5.037 1.543 3.814 3.989 16.188 3.174 20.032-.815 3.843-1.485 7.162-3.116 8.822-1.601 1.63-3.028 2.387-3.028 2.387" fill="#F8F3EC"/><path d="M118.412 150.462c1.194-8.472 4.63-12.461 7.774-16.304 3.174-3.844 8.56-7.308 9.608-7.221 1.048.058 3.727 1.223 5.27 5.037 1.543 3.814 3.989 16.188 3.174 20.032-.815 3.843-1.485 7.162-3.116 8.822-1.601 1.63-3.028 2.387-3.028 2.387" stroke="#393939" stroke-width="1.8" stroke-miterlimit="10"/><path d="M139.318 171.833c0 11.588-10.307 20.964-23.002 20.964-12.694 0-23.001-9.376-23.001-20.964 0-4.513-.059-9.375 2.62-12.811 4.164-5.357 12.724-6.958 20.381-8.152 5.532-.873 11.151-.961 15.14 2.038 5.125 3.843 7.862 12.403 7.862 18.925Z" fill="#F8F3EC" stroke="#393939" stroke-width="1.8" stroke-miterlimit="10"/><path d="M138.314 174.747c-3.377-5.59-14.441-6.988-18.605-4.484-4.163 2.533-1.064 8.618 1.993 15.17 1.059 2.268 1.339 5.529 3.203 6.636 2.94 1.747 10.045-2.038 12.012-2.648 1.561-.483 3.93-1.776 4.367-3.988.524-2.883-1.077-7.541-2.97-10.686Z" fill="#F8F3EC" stroke="#393939" stroke-width="1.8" stroke-miterlimit="10"/><path d="M101.8 188.727c-.869-6.573 7.169-15.159 12.145-16.071 4.993-.89 6.446 5.043 8.193 12.134.728 2.038 2.686 6.185 1.892 8.298-1.251 3.335-9.675 5.051-11.656 5.921-1.572.69-4.319 1.311-6.096-.086-2.278-1.85-3.983-6.504-4.478-10.196Z" fill="#F8F3EC" stroke="#393939" stroke-width="1.8" stroke-miterlimit="10"/><path d="M122.301 172.41c-.231-1.532-.5-1.985-1.032-2.487s-2.1.395-3.375.874c-1.376.518-3.391.991-3.349 1.72.043.729.205 1.96.924 2.913 0 0 1.384 1.853 2.716 2.27.81.254 1.402.57 2.194.163.681-.349 1.206-1.571 1.206-1.571s.941-2.343.716-3.882Z" fill="#393939" stroke="#393939" stroke-width="1.8" stroke-miterlimit="10"/><path d="M104.999 155.694c-5.299-6.754-10.248-8.501-14.907-10.248-4.659-1.747-11.064-2.038-11.938-1.456-.873.582-2.62 2.911-2.038 6.988.583 4.076 4.659 16.013 7.28 18.925 2.62 2.911 4.89 5.474 7.104 6.085 2.212.612 3.814.553 3.814.553M119.41 152.462c1.194-8.472 4.63-12.461 7.774-16.304 3.174-3.844 8.56-7.308 9.608-7.221 1.048.058 3.727 1.223 5.27 5.037 1.543 3.814 3.989 16.188 3.174 20.032-.815 3.843-1.485 7.162-3.116 8.822-1.601 1.63-3.028 2.387-3.028 2.387" fill="#9ED4DD" style="mix-blend-mode:darken"/></svg>