<svg fill="none" xmlns="http://www.w3.org/2000/svg" viewBox="0 0 667 118"><path d="M635.504 54.36c1.963 3.444 3.727 1.414 7.493 1.485 8.032.148 16.101 10.551 16.101 10.551s-1.512 2.575-7.876 7.169c-2.249 1.607-6.245 1.655-6.245 1.655s-1.485 5.908-8.102 11.543c-2.36 1.958-4.9 2.777-4.9 2.777s-5.196 2.49-13.099 1.571c-3.654-.423-9.618-3.317-9.618-3.317-9.43-4.766-11.66-15.174-11.66-15.174s1.618-4.01-2.01-4.27c-23.407-1.888-22.829-4.565-22.829-4.565.719-1.783 2.955-1.886 2.955-1.886-3.304-3.482 1.335-4.216 1.335-4.216-2.245-2.064-.198-3.89.252-4.21 0 0 1.19-1.44 22.234 7.661 5.197 2.265 12.333-2.2 12.333-2.2s-1.988-2.022-.267-3.796c0 0-1.911-1.533-2.245-2.064-.643-.9-.862-2.283.406-3.234 0 0-3.86-3.31-4.688-4.848-.814-1.456-.879-3.448.038-4.51 0 0-2.477-1.945-3.291-3.401-.6-1.157-.922-3.191-.614-4.408 0 0-4.1-3.773-5.334-5.246-.416-.518-1.886-2.956-1.462-5.025.282-1.379.624-1.85.624-1.85-4.58-6.283-2.77-10.657-2.77-10.657.073.989 2.122 5.504 3.896 7.225 2.07 2.009 3.064 3.02 8.929 6.346 11.731 6.654 15.728 9.776 21.56 15.527 1.881 1.872 6.059 7.718 7.032 11.235 1.149 3.572 1.903 4.12 1.822 4.133z" fill="#F4E9D2"/><path d="M635.504 54.36c1.963 3.444 3.727 1.414 7.493 1.485 8.032.148 16.101 10.551 16.101 10.551s-1.512 2.575-7.876 7.169c-2.249 1.607-6.245 1.655-6.245 1.655s-1.485 5.908-8.102 11.543c-2.36 1.958-4.9 2.777-4.9 2.777s-5.196 2.49-13.099 1.571c-3.654-.423-9.618-3.317-9.618-3.317-9.43-4.766-11.66-15.174-11.66-15.174s1.618-4.01-2.01-4.27c-23.407-1.888-22.829-4.565-22.829-4.565.719-1.783 2.955-1.886 2.955-1.886-3.304-3.482 1.335-4.216 1.335-4.216-2.245-2.064-.198-3.89.252-4.21 0 0 1.19-1.44 22.234 7.661 5.197 2.265 12.333-2.2 12.333-2.2s-1.988-2.022-.267-3.796c0 0-1.911-1.533-2.245-2.064-.643-.9-.862-2.283.406-3.234 0 0-3.86-3.31-4.688-4.848-.814-1.456-.879-3.448.038-4.51 0 0-2.477-1.945-3.291-3.401-.6-1.157-.922-3.191-.614-4.408 0 0-4.1-3.773-5.334-5.246-.416-.518-1.886-2.956-1.462-5.025.282-1.379.624-1.85.624-1.85-4.58-6.283-2.77-10.657-2.77-10.657.073.989 2.122 5.504 3.896 7.225 2.07 2.009 3.064 3.02 8.929 6.346 11.731 6.654 15.728 9.776 21.56 15.527 1.881 1.872 6.059 7.718 7.032 11.235 1.149 3.572 1.903 4.12 1.822 4.133z" stroke="#393939" stroke-width="2" stroke-miterlimit="10" stroke-linejoin="round"/><path d="M605.009 23.479s-2.299 4.451 2.015 6.939c0 0 .293 3.958 1.081 5.251.776 1.213 3.081 2.6 3.257 2.655 0 0-1.259 3.12.931 5.36 1.195 1.228 3.286 2.316 3.286 2.316s-1.482 2.236-.903 4.314c.459 1.846 1.954 2.86 1.954 2.86s-1.225.695-.925 2.066c.421 1.602 1.295 2.381 1.698 2.818M609.925 49.814s5.609 3.284 6.324 3.588M611.857 55.18s3.852 2.729 4.73 3.007M605.288 40.536s5.779 3.841 8.658 4.637M601.464 32.716s6.657 4.119 8.98 5.086" stroke="#393939" stroke-width="2" stroke-miterlimit="10" stroke-linejoin="round"/><path d="M595.21 20.607s2.546 3.435 5.249 5.76c2.704 2.326 6.32 4.09 6.32 4.09M587.529 61.698l-11.464.312M577.237 57.82l10.29 3.879" stroke="#393939" stroke-width="2" stroke-miterlimit="10" stroke-linejoin="round"/><path d="M621.955 74.19c-2.566.655-2.244 4.275-2.244 4.275-4.771.421-4.552 4.974-4.552 4.974-6.429 1.017-6.025 6.21-6.025 6.21-4.198 1.414-4.313 5.436-4.313 5.436-4.998 1.625-5.858 5.682-5.858 5.682-12.448 4.638-13.302 11.364-13.302 11.364 1.199-.857 7.829-3.241 11.132-4.514 3.302-1.273 12.537-2.483 14.259-2.672 1.722-.189 8.589-.024 13.468-3.465 4.878-3.441 7.617-11.966 7.617-11.966s2.191-7.772 1.747-17.962c0 0 6.406-9.606 12.305-10.289 5.898-.683 10.882 7.622 10.882 7.622 2.446-2.472 3.491-4.306 3.491-4.306s-8.764-11.628-16.714-11.788c-5.865-.157-8.34 1.068-11.556 4.997-1.178 1.521-2.84 1.034-4.464.79-3.341-.556-7.445-.658-15.841.586-7.582 1.116-24.072-6.62-28.75-9.3-6.513-3.725-20.352-15.802-20.352-15.802s2.157 7.834 7.423 13.175c5.253 5.259 18.394 15.026 18.475 15.014.081-.013-28.486 2.92-34.53 4.794-5.243 1.663-7.709 3.471-8.87 4.573 0 0 17.126-.373 25.162-.727 8.049-.272 10.894-.22 12.749-.097 2.951.2 27.177 4.628 38.361 3.61l.3-.215z" fill="#F4E9D2"/><path d="M621.955 74.19c-2.566.655-2.244 4.275-2.244 4.275-4.771.421-4.552 4.974-4.552 4.974-6.429 1.017-6.025 6.21-6.025 6.21-4.198 1.414-4.313 5.436-4.313 5.436-4.998 1.625-5.858 5.682-5.858 5.682-12.448 4.638-13.302 11.364-13.302 11.364 1.199-.857 7.829-3.241 11.132-4.514 3.302-1.273 12.537-2.483 14.259-2.672 1.722-.189 8.589-.024 13.468-3.465 4.878-3.441 7.617-11.966 7.617-11.966s2.191-7.772 1.747-17.962c0 0 6.406-9.606 12.305-10.289 5.898-.683 10.882 7.622 10.882 7.622 2.446-2.472 3.491-4.306 3.491-4.306s-8.764-11.628-16.714-11.788c-5.865-.157-8.34 1.068-11.556 4.997-1.178 1.521-2.84 1.034-4.464.79-3.341-.556-7.445-.658-15.841.586-7.582 1.116-24.072-6.62-28.75-9.3-6.513-3.725-20.352-15.802-20.352-15.802s2.157 7.834 7.423 13.175c5.253 5.259 18.394 15.026 18.475 15.014.081-.013-28.486 2.92-34.53 4.794-5.243 1.663-7.709 3.471-8.87 4.573 0 0 17.126-.373 25.162-.727 8.049-.272 10.894-.22 12.749-.097 2.951.2 27.177 4.628 38.361 3.61l.3-.215z" stroke="#393939" stroke-width="2" stroke-miterlimit="10" stroke-linejoin="round"/><path d="M621.535 74.172l5.993-.614s-4.146 1.74-2.124 4.507c0 0-4.009 1.552-2.924 4.717 0 0-3.435.96-3.404 5.377 0 0-5.05 1.3-3.537 5.064 0 0-3.349 2.032-1.815 4.876 0 0-4.249 2.674-2.56 6.495M599.019 100.591s12.156-2.256 14.23-2.334M604.891 94.991s7.83-1.655 10.473-1.823M609.028 89.498s7.543-1.36 9.86-1.476M615.147 83.358s4.746-.584 7.02-.443M619.606 78.315s3.281-.352 5.299-.254" stroke="#393939" stroke-width="2" stroke-miterlimit="10" stroke-linejoin="round"/><path d="M649.463 63.498a2.603 2.603 0 01-2.192 3.017c-1.384.219-2.785-.728-3.016-2.193a2.602 2.602 0 012.192-3.016c1.452-.313 2.785.727 3.016 2.192zM660.535 64.417s-3.513-4.283-4.374-4.981c0 0-3.495 3.222-4.095 3.65 0 0 2.948 2.287 4.885 5.568.094.069 2.188-2.515 3.584-4.237z" fill="#393939"/><path d="M1.002 94.189c36.761 7.078 74.915 17.741 112.615 16.777 22.021-.562 49.168-3.86 70.503-6.309 29.197-3.352 58.489-6.783 87.521-11.424 21.028-3.362 42.868-8.811 54.825-28.202 5.393-8.745 5.011-20.688-.526-29.253-8.586-13.282-29.998-15.125-44.023-13.67-20.489 2.125-34.317 11.842-40.581 31.738-2.562 8.14-4.766 19.106-1.53 27.342 5.485 13.955 22.012 20.912 35.181 25.238 24.127 7.926 52.047 5.71 76.765 2.724 56.064-6.772 111.493-19.671 165.958-34.32" stroke="#393939" stroke-width="1.7" stroke-linecap="round" stroke-linejoin="round" stroke-dasharray="10 10"/></svg>