<svg fill="none" xmlns="http://www.w3.org/2000/svg" viewBox="0 0 71 64"><path d="M17.277 29.165c-1.067 1.871-2.025.768-4.072.806-4.364.08-8.749 5.734-8.749 5.734s.821 1.4 4.28 3.895c1.222.874 3.393.9 3.393.9s.807 3.21 4.403 6.272c1.282 1.064 2.663 1.51 2.663 1.51s2.823 1.353 7.118.853c1.986-.23 5.226-1.803 5.226-1.803 5.124-2.589 6.336-8.245 6.336-8.245s-.879-2.18 1.093-2.32c12.72-1.026 12.405-2.481 12.405-2.481-.39-.969-1.606-1.025-1.606-1.025 1.795-1.892-.725-2.29-.725-2.29 1.22-1.122.107-2.114-.137-2.289 0 0-.647-.782-12.083 4.164-2.823 1.23-6.7-1.196-6.7-1.196s1.08-1.099.144-2.063c0 0 1.038-.833 1.22-1.121.35-.49.468-1.241-.22-1.758 0 0 2.097-1.799 2.547-2.634.442-.792.477-1.874-.02-2.452 0 0 1.345-1.056 1.788-1.847.326-.629.5-1.734.333-2.395 0 0 2.228-2.05 2.899-2.851.226-.282 1.025-1.606.794-2.73-.153-.75-.34-1.006-.34-1.006 2.49-3.415 1.506-5.791 1.506-5.791-.04.537-1.153 2.99-2.117 3.926-1.124 1.091-1.665 1.64-4.852 3.448-6.374 3.616-8.547 5.313-11.716 8.438-1.022 1.017-3.292 4.194-3.821 6.105-.625 1.941-1.034 2.239-.99 2.246z" fill="#F8F3EC"/><path d="M17.277 29.165c-1.067 1.871-2.025.768-4.072.806-4.364.08-8.749 5.734-8.749 5.734s.821 1.4 4.28 3.895c1.222.874 3.393.9 3.393.9s.807 3.21 4.403 6.272c1.282 1.064 2.663 1.51 2.663 1.51s2.823 1.353 7.118.853c1.986-.23 5.226-1.803 5.226-1.803 5.124-2.589 6.336-8.245 6.336-8.245s-.879-2.18 1.093-2.32c12.72-1.026 12.405-2.481 12.405-2.481-.39-.969-1.606-1.025-1.606-1.025 1.795-1.892-.725-2.29-.725-2.29 1.22-1.122.107-2.114-.137-2.289 0 0-.647-.782-12.083 4.164-2.823 1.23-6.7-1.196-6.7-1.196s1.08-1.099.144-2.063c0 0 1.038-.833 1.22-1.121.35-.49.468-1.241-.22-1.758 0 0 2.097-1.799 2.547-2.634.442-.792.477-1.874-.02-2.452 0 0 1.345-1.056 1.788-1.847.326-.629.5-1.734.333-2.395 0 0 2.228-2.05 2.899-2.851.226-.282 1.025-1.606.794-2.73-.153-.75-.34-1.006-.34-1.006 2.49-3.415 1.506-5.791 1.506-5.791-.04.537-1.153 2.99-2.117 3.926-1.124 1.091-1.665 1.64-4.852 3.448-6.374 3.616-8.547 5.313-11.716 8.438-1.022 1.017-3.292 4.194-3.821 6.105-.625 1.941-1.034 2.239-.99 2.246z" stroke="#393939" stroke-width="1.2" stroke-miterlimit="10" stroke-linejoin="round"/><path d="M33.848 12.383s1.25 2.42-1.095 3.771c0 0-.16 2.151-.588 2.854-.421.659-1.674 1.413-1.77 1.443 0 0 .685 1.694-.505 2.912-.65.668-1.786 1.259-1.786 1.259s.805 1.215.49 2.344c-.249 1.003-1.061 1.554-1.061 1.554s.665.378.502 1.123c-.228.87-.703 1.294-.922 1.531M31.177 26.694s-3.048 1.785-3.437 1.95M30.125 29.61s-2.093 1.483-2.57 1.634M33.696 21.653s-3.141 2.087-4.705 2.52M35.774 17.403s-3.618 2.238-4.88 2.764" stroke="#393939" stroke-width="1.2" stroke-miterlimit="10" stroke-linejoin="round"/><path d="M39.172 10.823s-1.383 1.866-2.852 3.13c-1.47 1.264-3.434 2.222-3.434 2.222M43.347 33.152l6.229.17M48.939 31.045l-5.592 2.107" stroke="#393939" stroke-width="1.2" stroke-miterlimit="10" stroke-linejoin="round"/><path d="M24.639 39.94c1.394.357 1.219 2.323 1.219 2.323 2.593.23 2.473 2.704 2.473 2.704 3.494.552 3.275 3.373 3.275 3.373 2.28.77 2.343 2.955 2.343 2.955 2.716.883 3.184 3.088 3.184 3.088 6.764 2.52 7.228 6.175 7.228 6.175-.652-.466-4.255-1.761-6.05-2.453-1.794-.692-6.812-1.35-7.748-1.452-.936-.103-4.667-.013-7.318-1.883s-4.14-6.503-4.14-6.503-1.19-4.223-.95-9.76c0 0-3.48-5.22-6.685-5.591-3.206-.371-5.914 4.142-5.914 4.142-1.329-1.344-1.897-2.34-1.897-2.34s4.762-6.319 9.083-6.406c3.187-.085 4.532.58 6.28 2.716.64.826 1.543.561 2.425.429 1.816-.303 4.046-.358 8.608.319 4.12.606 13.08-3.598 15.623-5.055 3.54-2.024 11.06-8.586 11.06-8.586s-1.172 4.257-4.034 7.159c-2.855 2.858-9.995 8.165-10.04 8.159-.044-.008 15.48 1.586 18.764 2.605 2.849.904 4.19 1.886 4.82 2.485 0 0-9.306-.203-13.673-.395-4.374-.148-5.92-.12-6.928-.053-1.604.109-14.768 2.515-20.846 1.961l-.162-.116z" fill="#F8F3EC"/><path d="M24.639 39.94c1.394.357 1.219 2.323 1.219 2.323 2.593.23 2.473 2.704 2.473 2.704 3.494.552 3.275 3.373 3.275 3.373 2.28.77 2.343 2.955 2.343 2.955 2.716.883 3.184 3.088 3.184 3.088 6.764 2.52 7.228 6.175 7.228 6.175-.651-.466-4.255-1.761-6.05-2.453-1.794-.692-6.812-1.35-7.748-1.452-.936-.103-4.667-.013-7.318-1.883s-4.14-6.503-4.14-6.503-1.19-4.223-.95-9.76c0 0-3.48-5.22-6.685-5.591-3.206-.371-5.914 4.142-5.914 4.142-1.329-1.344-1.897-2.34-1.897-2.34s4.762-6.319 9.083-6.406c3.187-.085 4.532.58 6.28 2.716.64.826 1.543.561 2.425.429 1.816-.303 4.046-.358 8.608.319 4.12.606 13.08-3.598 15.623-5.055 3.54-2.024 11.06-8.586 11.06-8.586s-1.172 4.257-4.034 7.159c-2.855 2.858-9.995 8.165-10.04 8.159-.044-.008 15.48 1.586 18.764 2.605 2.849.904 4.19 1.886 4.82 2.485 0 0-9.306-.203-13.673-.395-4.374-.148-5.92-.12-6.928-.053-1.604.109-14.768 2.515-20.846 1.961l-.162-.116z" stroke="#393939" stroke-width="1.2" stroke-miterlimit="10" stroke-linejoin="round"/><path d="M24.867 39.93l-3.256-.333s2.253.945 1.154 2.449c0 0 2.178.843 1.589 2.563 0 0 1.867.522 1.85 2.922 0 0 2.744.706 1.922 2.752 0 0 1.82 1.104.986 2.65 0 0 2.309 1.453 1.391 3.529M37.102 54.287s-6.606-1.226-7.733-1.268M33.911 51.244s-4.255-.9-5.691-.991M31.663 48.26s-4.099-.74-5.358-.803M28.337 44.922s-2.579-.317-3.815-.24M25.916 42.182s-1.783-.191-2.879-.138" stroke="#393939" stroke-width="1.2" stroke-miterlimit="10" stroke-linejoin="round"/><path d="M9.69 34.13a1.414 1.414 0 001.191 1.64 1.443 1.443 0 001.64-1.192 1.415 1.415 0 00-1.192-1.64c-.79-.17-1.513.396-1.64 1.192zM3.673 34.63s1.91-2.328 2.377-2.707c0 0 1.9 1.75 2.225 1.984 0 0-1.602 1.242-2.654 3.025-.052.037-1.19-1.367-1.948-2.303z" fill="#393939"/></svg>