<svg fill="none" xmlns="http://www.w3.org/2000/svg" viewBox="0 0 328 329"><path d="M37.745 174.275c-23.469-18.805-26.75-74.488-5.766-91.73 20.983-17.241 97.236-66.417 126.415-58.717 29.179 7.7 58.896 47.189 27.927 73.644-30.968 26.455-125.106 95.609-148.576 76.803Z" stroke="#fff" stroke-width="1.2"/><path d="M112.749 19.787c-34.262 23.026-81.35 90.021-77.867 110.372 3.483 20.35 26.886 78.1 56.983 68.322 30.097-9.779 115.058-50.003 110.722-81.25-4.336-31.248-55.575-120.47-89.838-97.444Z" fill="#B96955"/><path d="M87.177 221.215c-3.665-35.449 37.32-81.938 67.233-76.905 29.913 5.033 128.072 33.877 144.893 65.674 16.821 31.798 9.199 88.956-35.738 82.317-44.937-6.639-172.724-35.637-176.388-71.086Z" stroke="#fff" stroke-width="1.2"/></svg>