<svg fill="none" xmlns="http://www.w3.org/2000/svg" viewBox="0 0 139 115"><path d="M137.952 92.347c-8.96.202-31.689.17-40.961-4.02-9.767-4.4-25.678-17.92-27.873-19.938-1.705-1.553-3.204-3.094-3.204-3.094a126.47 126.47 0 0 1-3.17-3.455c-2.055-2.347-3.082-3.521-4.77-5.532-4.106-4.949-5.346-8.019-10.002-11.928C37.857 35.888 23.95 31.74 15.78 34.02" stroke="#fff" stroke-width="2" stroke-miterlimit="10" stroke-linecap="round"/><path d="M57.834 24.456c3.947 4.639 6.337 11.167 7.725 19.088 1.321 7.535.739 15.117-.532 19.58M58.676 23.203c-2.166.821-.708-1.541.17-5.887.168-.91 1.989-3.13 3.314-3.71 2.347-.981 3.612 3.551.841 6.785-1.068 1.286-3.81 2.633-4.325 2.812Z" stroke="#fff" stroke-width="2" stroke-miterlimit="10"/><path d="M57.965 22.59c-.45 2.301-1.746-.186-5.169-3.26-.69-.639-1.727-3.388-1.464-4.801.404-2.548 5.162-1.259 6.538 2.834.526 1.65.215 4.694.095 5.227Z" stroke="#fff" stroke-width="2" stroke-miterlimit="10"/><path d="M57.39 24.447c1.042-.713-.341-.196-1.098-1.223-1.151-1.514-2.342-2.07-4.406-2.638-.918-.26-3.494.391-4.696 1.177-2.218 1.406.913 5.146 5.314 4.716 1.663-.18 4.386-1.68 4.886-2.032ZM16.557 32.92c-1.783 2.1-1.641-1.212-3.249-6.322-.346-1.047.275-4.5 1.346-5.81 1.932-2.382 5.874 1.687 4.881 6.674-.436 2.002-2.514 4.967-2.978 5.457Z" stroke="#fff" stroke-width="2" stroke-miterlimit="10"/><path d="M15.192 32.92c.89 2.615-1.882.755-7.08-.553-1.058-.258-3.668-2.603-4.261-4.161-1.043-2.89 4.49-4.121 8.216-.67 1.473 1.395 2.91 4.767 3.125 5.384Z" stroke="#fff" stroke-width="2" stroke-miterlimit="10"/><path d="M15.47 34.689c.662-1.336-.458-.016-1.834-.62-2.035-.885-3.537-.807-5.962-.255-1.066.249-3.306 2.334-4.136 3.853-1.47 2.7 3.865 4.74 8.027 1.843 1.662-1.118 3.605-4.26 3.905-4.821Z" stroke="#fff" stroke-width="2" stroke-miterlimit="10"/></svg>