<svg fill="none" xmlns="http://www.w3.org/2000/svg" viewBox="0 0 18 18"><path d="m9.382 14.706 4.364 2.716c.558.347 1.25-.17 1.085-.809l-1.26-4.872a.731.731 0 0 1 .245-.755l3.914-3.2c.514-.42.249-1.258-.412-1.3l-5.111-.326a.737.737 0 0 1-.381-.138.717.717 0 0 1-.247-.317L9.673.99A.71.71 0 0 0 9.41.659a.729.729 0 0 0-1.082.33L6.42 5.706a.717.717 0 0 1-.247.317.737.737 0 0 1-.38.138l-5.112.326c-.66.042-.926.88-.412 1.3l3.914 3.2a.744.744 0 0 1 .246.755l-1.17 4.518c-.198.768.633 1.387 1.302.97l4.056-2.523a.72.72 0 0 1 .764 0Z" fill="#E4987F"/></svg>