<svg fill="none" xmlns="http://www.w3.org/2000/svg" viewBox="0 0 113 102"><path d="M26.611 46.847c-1.709 2.998-3.245 1.23-6.522 1.292-6.992.13-14.016 9.185-14.016 9.185s1.315 2.242 6.856 6.24c1.957 1.4 5.436 1.441 5.436 1.441s1.293 5.143 7.053 10.048c2.054 1.705 4.265 2.418 4.265 2.418s4.523 2.167 11.403 1.367c3.18-.368 8.372-2.887 8.372-2.887 8.209-4.149 10.15-13.21 10.15-13.21s-1.408-3.49 1.75-3.717c20.376-1.643 19.873-3.974 19.873-3.974-.626-1.55-2.572-1.64-2.572-1.64 2.875-3.032-1.163-3.67-1.163-3.67 1.955-1.797.172-3.387-.219-3.666 0 0-1.036-1.253-19.355 6.67-4.524 1.971-10.735-1.916-10.735-1.916s1.73-1.76.232-3.304c0 0 1.663-1.335 1.954-1.797.56-.783.75-1.987-.353-2.815 0 0 3.36-2.882 4.08-4.22.709-1.268.765-3.002-.032-3.927 0 0 2.156-1.693 2.864-2.96.523-1.007.803-2.778.535-3.837 0 0 3.57-3.285 4.643-4.567.362-.451 1.642-2.573 1.273-4.374-.246-1.2-.544-1.61-.544-1.61 3.988-5.47 2.412-9.278 2.412-9.278-.064.861-1.848 4.791-3.392 6.29-1.801 1.748-2.667 2.628-7.773 5.524-10.211 5.792-13.69 8.51-18.767 13.517-1.638 1.629-5.275 6.718-6.122 9.78-1 3.109-1.657 3.586-1.586 3.597Z" fill="#E4987F"/><path d="M26.611 46.847c-1.709 2.998-3.245 1.23-6.522 1.292-6.992.13-14.016 9.185-14.016 9.185s1.315 2.242 6.856 6.24c1.957 1.4 5.436 1.441 5.436 1.441s1.293 5.143 7.053 10.048c2.054 1.705 4.265 2.418 4.265 2.418s4.523 2.167 11.403 1.367c3.18-.368 8.372-2.887 8.372-2.887 8.209-4.149 10.15-13.21 10.15-13.21s-1.408-3.49 1.75-3.717c20.376-1.643 19.873-3.974 19.873-3.974-.626-1.55-2.572-1.64-2.572-1.64 2.875-3.032-1.163-3.67-1.163-3.67 1.955-1.797.172-3.387-.219-3.666 0 0-1.036-1.253-19.355 6.67-4.524 1.971-10.735-1.916-10.735-1.916s1.73-1.76.232-3.304c0 0 1.663-1.335 1.954-1.797.56-.783.75-1.987-.353-2.815 0 0 3.36-2.882 4.08-4.22.709-1.268.765-3.002-.032-3.927 0 0 2.156-1.693 2.864-2.96.523-1.007.803-2.778.535-3.837 0 0 3.57-3.285 4.643-4.567.362-.451 1.642-2.573 1.273-4.374-.246-1.2-.544-1.61-.544-1.61 3.988-5.47 2.412-9.278 2.412-9.278-.064.861-1.848 4.791-3.392 6.29-1.801 1.748-2.667 2.628-7.773 5.524-10.211 5.792-13.69 8.51-18.767 13.517-1.638 1.629-5.275 6.718-6.122 9.78-1 3.109-1.657 3.586-1.586 3.597Z" stroke="#fff" stroke-width="1.2" stroke-miterlimit="10" stroke-linejoin="round"/><path d="M53.156 19.965s2.002 3.874-1.754 6.04c0 0-.254 3.446-.94 4.572-.676 1.055-2.683 2.262-2.836 2.31 0 0 1.096 2.716-.81 4.665-1.04 1.07-2.86 2.017-2.86 2.017s1.29 1.947.785 3.755c-.4 1.608-1.7 2.49-1.7 2.49s1.066.605.804 1.798c-.366 1.395-1.127 2.073-1.477 2.454" stroke="#fff" stroke-width="1.2" stroke-miterlimit="10" stroke-linejoin="round"/><path d="M48.877 42.89s-4.882 2.858-5.505 3.123M47.195 47.561s-3.353 2.375-4.117 2.617M52.914 34.813s-5.031 3.344-7.537 4.037M56.242 28.005s-5.796 3.586-7.817 4.428M61.685 17.465s-2.216 2.99-4.569 5.014c-2.353 2.024-5.501 3.56-5.501 3.56M68.374 53.235l9.98.27M77.332 49.859l-8.958 3.376" stroke="#fff" stroke-width="1.2" stroke-miterlimit="10" stroke-linejoin="round"/><path d="M38.404 64.108c2.233.571 1.953 3.722 1.953 3.722 4.154.367 3.962 4.33 3.962 4.33 5.597.886 5.246 5.405 5.246 5.405 3.654 1.232 3.754 4.733 3.754 4.733 4.35 1.415 5.1 4.946 5.1 4.946 10.835 4.038 11.58 9.893 11.58 9.893-1.045-.746-6.817-2.821-9.692-3.93-2.874-1.108-10.914-2.162-12.413-2.326-1.499-.165-7.476-.02-11.723-3.016-4.246-2.996-6.631-10.417-6.631-10.417s-1.907-6.765-1.521-15.636c0 0-5.576-8.362-10.711-8.956-5.135-.594-9.473 6.635-9.473 6.635-2.13-2.152-3.039-3.748-3.039-3.748s7.629-10.123 14.55-10.263c5.105-.136 7.26.93 10.06 4.351 1.025 1.324 2.472.9 3.885.687 2.909-.484 6.481-.572 13.79.511 6.6.971 20.954-5.763 25.027-8.097 5.669-3.242 17.716-13.755 17.716-13.755s-1.877 6.82-6.461 11.469c-4.573 4.578-16.012 13.08-16.083 13.07-.071-.012 24.797 2.542 30.058 4.173 4.564 1.448 6.712 3.022 7.722 3.98 0 0-14.909-.324-21.904-.632-7.007-.236-9.483-.192-11.098-.085-2.569.175-23.657 4.029-33.393 3.143l-.261-.187Z" fill="#E4987F"/><path d="M38.404 64.108c2.233.571 1.953 3.722 1.953 3.722 4.154.367 3.962 4.33 3.962 4.33 5.597.886 5.246 5.405 5.246 5.405 3.654 1.232 3.754 4.733 3.754 4.733 4.35 1.415 5.1 4.946 5.1 4.946 10.835 4.038 11.58 9.893 11.58 9.893-1.045-.746-6.817-2.821-9.692-3.93-2.874-1.108-10.914-2.162-12.413-2.326-1.499-.165-7.476-.02-11.723-3.016-4.246-2.996-6.631-10.417-6.631-10.417s-1.907-6.765-1.521-15.636c0 0-5.576-8.362-10.711-8.956-5.135-.594-9.473 6.635-9.473 6.635-2.13-2.152-3.039-3.748-3.039-3.748s7.629-10.123 14.55-10.263c5.105-.136 7.26.93 10.06 4.351 1.025 1.324 2.472.9 3.885.687 2.909-.484 6.481-.572 13.79.511 6.6.971 20.954-5.763 25.027-8.097 5.669-3.242 17.716-13.755 17.716-13.755s-1.877 6.82-6.461 11.469c-4.573 4.578-16.012 13.08-16.083 13.07-.071-.012 24.797 2.542 30.058 4.173 4.564 1.448 6.712 3.022 7.722 3.98 0 0-14.909-.324-21.904-.632-7.007-.236-9.483-.192-11.098-.085-2.569.175-23.657 4.029-33.393 3.143l-.261-.187Z" stroke="#fff" stroke-width="1.2" stroke-miterlimit="10" stroke-linejoin="round"/><path d="m38.77 64.093-5.217-.535s3.61 1.515 1.848 3.924c0 0 3.49 1.35 2.546 4.106 0 0 2.99.836 2.963 4.68 0 0 4.397 1.132 3.08 4.41 0 0 2.915 1.768 1.58 4.243 0 0 3.698 2.328 2.228 5.654" stroke="#fff" stroke-width="1.2" stroke-miterlimit="10" stroke-linejoin="round"/><path d="M58.37 87.091s-10.582-1.964-12.386-2.031M53.26 82.216s-6.816-1.441-9.116-1.587M49.659 77.435s-6.566-1.184-8.584-1.285M44.33 72.09s-4.13-.508-6.111-.386M40.45 67.7s-2.856-.307-4.612-.222" stroke="#fff" stroke-width="1.2" stroke-miterlimit="10" stroke-linejoin="round"/><path d="M14.46 54.802a2.266 2.266 0 0 0 1.908 2.625c1.204.19 2.424-.633 2.626-1.908a2.266 2.266 0 0 0-1.91-2.626c-1.263-.272-2.423.633-2.625 1.909ZM4.82 55.6s3.059-3.727 3.808-4.335c0 0 3.043 2.805 3.565 3.178 0 0-2.566 1.99-4.253 4.847-.082.06-1.905-2.19-3.12-3.69Z" fill="#fff"/></svg>