<svg fill="none" xmlns="http://www.w3.org/2000/svg" viewBox="0 0 248 232"><path d="M110.117 223.984c3.992-3.932 10.907-11.725 14.257-23.593 2.851-10.081 1.782-18.088.713-26.453-2.067-15.658-8.269-30.386-13.544-38.608-.428-.643-1.568-2.43-2.851-5.004-2.78-5.577-6.059-12.226-4.277-17.874 1.924-6.077 8.91-8.58 14.969-10.724 7.342-2.646 20.459-5.148 22.811-.715 2.139 4.075-7.485 9.151-12.118 22.878-2.566 7.507-2.139 13.37-1.426 24.308 1.212 18.518 5.204 20.377 7.129 40.753 1.425 15.014 0 22.163-2.139 27.883a47.908 47.908 0 0 1-7.841 13.584" stroke="#393939" stroke-width="2" stroke-miterlimit="10" stroke-linecap="round"/><path d="M243.403 136.648c-.927 1.787-3.322 8.983-25.277 10.985-16.974 1.548-39.688-8.466-54-17-7.342-4.361-9.716-6.644-10.5-5.5-1.212 1.788 18.279 16.305 21.344 18.664 14.043 10.725 18.819 13.441 21.385 20.734 2.567 7.364 2.424 18.517-4.277 24.308-8.554 7.364-24.806 7.865-32.79 1.43-5.988-4.79-16.816-10.262-22.162-27.636-4.135-13.512-6.291-21.85-9-29.5" stroke="#393939" stroke-width="2" stroke-miterlimit="10"/><path d="M245.557 70.27c3.492 8.65-5.347 21.52-14.97 27.883-9.124 6.005-22.169 5.791-47.76 5.004-16.894-.5-16.966-1.716-17.108-.715-.214 1.287 4.348 2.574 20.672 4.29 25.021 2.645 33.503-.786 44.909 6.435 9.124 5.791 15.254 17.516 12.118 23.593" stroke="#393939" stroke-width="2" stroke-miterlimit="10"/><path d="M113.126 138.133c.57 6.792-3.08 24.079-10.137 37.235-7.128 13.369-23.167 29.884-34.216 25.738-9.124-3.432-13.401-20.448-9.98-33.603 5.418-21.091 30.082-30.671 28.514-33.603-1.426-2.645-20.174 8.58-47.76 10.01-12.118.643-26.874 1.144-34.216-8.58-3.992-5.29-5.846-13.584-2.852-20.018 5.846-12.727 28.086-12.798 39.92-12.87 22.168-.071 41.486 6.506 41.344 7.15-.143.786-27.088-2.145-52.75-16.444-12.047-6.72-23.738-13.37-24.237-24.308-.427-9.51 7.699-19.519 17.108-22.164 7.699-2.145 14.043 1.287 26.375 7.865a106.506 106.506 0 0 1 24.95 18.588C88.09 86.07 93.65 97.867 94.435 97.438c.856-.5-4.776-16.087-16.395-32.888C68.773 51.18 63 47.606 62.357 38.097c-.142-1.93-.57-12.94 7.842-20.019 4.99-4.218 13.544-7.435 19.96-4.29 3.92 1.93 6.985 6.292 10.692 30.743 3.136 20.734 3.493 34.318 4.277 34.318.214 0-1.854-23.95 3.564-51.477 1.782-9.008 3.778-15.3 9.267-20.018 7.057-6.006 19.246-8.866 25.662-3.575 5.988 5.005 4.847 15.372 3.564 26.453-.57 5.22-1.568 9.009-2.851 13.584-4.848 17.731-11.049 27.955-9.98 28.599.998.571 7.485-7.365 14.257-17.874 15.611-24.309 15.326-35.533 27.8-42.897 1.497-.93 12.831-7.436 19.96-2.86 7.271 4.647 6.843 18.731 3.564 27.883-2.352 6.649-6.13 10.581-19.959 22.878-14.899 13.298-26.946 22.092-26.375 22.879.427.643 8.411-5.791 22.098-10.01 12.341-3.808 23.388-10.593 35.927-12.869 10.122-1.858 30.01.93 33.931 10.725" stroke="#393939" stroke-width="2" stroke-miterlimit="10"/><path d="M157.625 118.633c0 12.151-14.998 22-33.5 22-18.502 0-33.5-9.849-33.5-22 0-12.15 28.498-26 47-26s20 13.85 20 26Z" fill="#ffcc66" style="mix-blend-mode:darken"/></svg>