<svg fill="none" xmlns="http://www.w3.org/2000/svg" viewBox="0 0 221 219"><path d="M40.745 163.067c-23.47-17.697-26.75-70.1-5.767-86.326 20.983-16.227 97.236-62.506 126.415-55.26 29.18 7.247 58.896 44.41 27.928 69.307-30.969 24.897-125.107 89.977-148.577 72.279Z" stroke="#fff" stroke-width="1.2"/><path d="M107.748 17.683c-34.263 21.67-81.35 84.718-77.867 103.87 3.483 19.152 26.886 73.5 56.983 64.298 30.097-9.202 115.058-47.057 110.722-76.464-4.336-29.407-55.575-113.374-89.838-91.704Z" fill="#B96955"/><path d="M84.394 42.102c1.629 2.384 2.79.806 5.528.635 5.84-.367 12.313 6.71 12.313 6.71s-.946 1.959-5.295 5.67c-1.538 1.3-4.437 1.57-4.437 1.57s-.73 4.377-5.2 8.859c-1.598 1.561-3.394 2.306-3.394 2.306s-3.625 2.114-9.418 1.914c-2.678-.092-7.179-1.841-7.179-1.841-7.127-2.903-9.361-10.329-9.361-10.329s.938-3.007-1.712-2.981c-17.106.011-16.844-1.967-16.844-1.967.417-1.336 2.034-1.543 2.034-1.543-2.604-2.333.72-3.14.72-3.14-1.751-1.366-.373-2.812-.065-3.072 0 0 .78-1.116 16.595 4.25 3.907 1.338 8.824-2.326 8.824-2.326s-1.563-1.35-.418-2.74c0 0-1.477-1-1.751-1.366-.52-.615-.76-1.606.103-2.372 0 0-2.998-2.175-3.69-3.243-.676-1.01-.841-2.452-.238-3.277 0 0-1.913-1.266-2.59-2.275-.504-.804-.858-2.262-.706-3.164 0 0-3.2-2.497-4.183-3.494-.332-.351-1.544-2.034-1.358-3.561.123-1.019.344-1.381.344-1.381-3.697-4.291-2.64-7.574-2.64-7.574.111.714 1.866 3.87 3.255 5.016 1.621 1.336 2.403 2.011 6.858 4.08 8.91 4.139 11.996 6.17 16.57 10.001 1.476 1.248 4.854 5.246 5.769 7.742 1.045 2.525 1.625 2.879 1.566 2.893Z" fill="#E4987F"/><path d="M84.394 42.102c1.629 2.384 2.79.806 5.528.635 5.84-.367 12.313 6.71 12.313 6.71s-.946 1.959-5.295 5.67c-1.538 1.3-4.437 1.57-4.437 1.57s-.73 4.377-5.2 8.859c-1.598 1.561-3.394 2.306-3.394 2.306s-3.625 2.114-9.418 1.914c-2.678-.092-7.179-1.841-7.179-1.841-7.127-2.903-9.361-10.329-9.361-10.329s.938-3.007-1.712-2.981c-17.106.011-16.844-1.967-16.844-1.967.417-1.336 2.034-1.543 2.034-1.543-2.604-2.333.72-3.14.72-3.14-1.751-1.366-.373-2.812-.065-3.072 0 0 .78-1.116 16.595 4.25 3.907 1.338 8.824-2.326 8.824-2.326s-1.563-1.35-.418-2.74c0 0-1.477-1-1.751-1.366-.52-.615-.76-1.606.103-2.372 0 0-2.998-2.175-3.69-3.243-.676-1.01-.841-2.452-.238-3.277 0 0-1.913-1.266-2.59-2.275-.504-.804-.858-2.262-.706-3.164 0 0-3.2-2.497-4.183-3.494-.332-.351-1.544-2.034-1.358-3.561.123-1.019.344-1.381.344-1.381-3.697-4.291-2.64-7.574-2.64-7.574.111.714 1.866 3.87 3.255 5.016 1.621 1.336 2.403 2.011 6.858 4.08 8.91 4.139 11.996 6.17 16.57 10.001 1.476 1.248 4.854 5.246 5.769 7.742 1.045 2.525 1.625 2.879 1.566 2.893Z" stroke="#fff" stroke-width="1.2" stroke-miterlimit="10" stroke-linejoin="round"/><path d="M60.43 21.48s-1.406 3.368 1.873 4.92c0 0 .446 2.856 1.095 3.749.635.834 2.39 1.705 2.52 1.735 0 0-.729 2.339.993 3.836.94.822 2.523 1.488 2.523 1.488s-.944 1.711-.4 3.185c.441 1.314 1.587 1.962 1.587 1.962s-.849.577-.55 1.554c.4 1.138 1.08 1.653 1.399 1.946" stroke="#fff" stroke-width="1.2" stroke-miterlimit="10" stroke-linejoin="round"/><path d="M65.553 40.31s4.266 2.054 4.803 2.232M67.275 44.093s2.958 1.753 3.612 1.903M61.638 33.849s4.423 2.447 6.56 2.855M58.4 28.396s5.078 2.598 6.821 3.163M53.147 19.974s2.05 2.344 4.15 3.872c2.101 1.529 4.83 2.596 4.83 2.596M49.995 50.261l-8.304.903M42.294 48.053l7.7 2.208" stroke="#fff" stroke-width="1.2" stroke-miterlimit="10" stroke-linejoin="round"/><path d="M75.727 57.298c-1.824.628-1.377 3.237-1.377 3.237-3.44.587-3.011 3.88-3.011 3.88-4.608 1.118-4.008 4.864-4.008 4.864-2.964 1.275-2.81 4.202-2.81 4.202-3.534 1.475-3.918 4.471-3.918 4.471-8.764 4.103-8.988 9.036-8.988 9.036.82-.693 5.494-2.815 7.816-3.934 2.323-1.12 8.957-2.544 10.196-2.782 1.24-.24 6.234-.525 9.573-3.311 3.339-2.786 4.824-9.138 4.824-9.138s1.132-5.771.209-13.144c0 0 4.083-7.353 8.326-8.197 4.242-.843 8.351 4.892 8.351 4.892 1.629-1.94 2.28-3.332 2.28-3.332s-7.05-7.925-12.831-7.573c-4.267.233-5.992 1.269-8.096 4.311-.765 1.174-2 .918-3.194.837-2.458-.207-5.444-.038-11.466 1.36-5.439 1.259-17.868-3.385-21.423-5.055-4.948-2.32-15.71-10.27-15.71-10.27s2.029 5.56 6.168 9.127c4.124 3.508 14.242 9.824 14.3 9.81.058-.015-20.51 3.802-24.787 5.519-3.709 1.517-5.393 2.976-6.17 3.844 0 0 12.412-1.282 18.226-2.013 5.828-.673 7.896-.804 9.25-.824 2.154-.028 20.005 1.756 28.065.356l.205-.173Z" fill="#E4987F"/><path d="M75.727 57.298c-1.824.628-1.377 3.237-1.377 3.237-3.44.587-3.011 3.88-3.011 3.88-4.608 1.118-4.008 4.864-4.008 4.864-2.964 1.275-2.81 4.202-2.81 4.202-3.534 1.475-3.918 4.471-3.918 4.471-8.764 4.103-8.988 9.036-8.988 9.036.82-.693 5.494-2.815 7.816-3.934 2.323-1.12 8.957-2.544 10.196-2.782 1.24-.24 6.234-.525 9.573-3.311 3.339-2.786 4.824-9.138 4.824-9.138s1.132-5.771.209-13.144c0 0 4.083-7.353 8.326-8.197 4.242-.843 8.351 4.892 8.351 4.892 1.629-1.94 2.28-3.332 2.28-3.332s-7.05-7.925-12.831-7.573c-4.267.233-5.992 1.269-8.096 4.311-.765 1.174-2 .918-3.194.837-2.458-.207-5.444-.038-11.466 1.36-5.439 1.259-17.868-3.385-21.423-5.055-4.948-2.32-15.71-10.27-15.71-10.27s2.029 5.56 6.168 9.127c4.124 3.508 14.242 9.824 14.3 9.81.058-.015-20.51 3.802-24.787 5.519-3.709 1.517-5.393 2.976-6.17 3.844 0 0 12.412-1.282 18.226-2.013 5.828-.673 7.896-.804 9.25-.824 2.154-.028 20.005 1.756 28.065.356l.205-.173Z" stroke="#fff" stroke-width="1.2" stroke-miterlimit="10" stroke-linejoin="round"/><path d="m75.422 57.31 4.314-.8s-2.907 1.509-1.275 3.398c0 0-2.82 1.364-1.845 3.598 0 0-2.438.9-2.154 4.105 0 0-3.59 1.241-2.27 3.885 0 0-2.311 1.673-1.03 3.647 0 0-2.926 2.193-1.475 4.867" stroke="#fff" stroke-width="1.2" stroke-miterlimit="10" stroke-linejoin="round"/><path d="M60.633 77.822s8.693-2.356 10.193-2.535M64.566 73.409s5.587-1.665 7.496-1.942M67.244 69.176s5.397-1.433 7.072-1.654M71.325 64.357s3.412-.704 5.071-.736M74.265 60.432s2.361-.449 3.832-.497" stroke="#fff" stroke-width="1.2" stroke-miterlimit="10" stroke-linejoin="round"/><path d="M95.069 47.912a1.896 1.896 0 0 1-1.414 2.32c-.992.24-2.065-.365-2.32-1.414a1.896 1.896 0 0 1 1.414-2.32c1.036-.313 2.065.364 2.32 1.414ZM103.161 47.925s-2.804-2.902-3.47-3.358c0 0-2.347 2.546-2.757 2.892 0 0 2.275 1.487 3.875 3.754.073.044 1.441-1.955 2.352-3.288Z" fill="#fff"/></svg>