<svg fill="none" xmlns="http://www.w3.org/2000/svg" viewBox="0 0 182 139"><path d="M1 137.917c12.933-2.108 45.592-8.23 57.798-16.73 12.86-8.937 32.114-32.623 34.73-36.11a123.43 123.43 0 0 0 3.777-5.304c1.381-2.107 2.398-3.778 3.633-5.812 2.325-3.924 3.488-5.885 5.377-9.228 4.577-8.21 5.539-12.954 11.185-19.817 12.267-14.91 31.149-24.59 43.5-23.5" stroke="#393939" stroke-width="2" stroke-miterlimit="10" stroke-linecap="round"/><path d="M98 18.916c-4.432 7.723-6.122 17.745-6 29.5.117 11.183 2.981 21.925 6 28M96.452 17.341c3.332.601.606-2.404-1.818-8.415-.485-1.262-3.696-3.967-5.756-4.448-3.635-.781-4.241 6.07.606 9.978 1.878 1.563 6.18 2.765 6.968 2.885Z" stroke="#393939" stroke-width="2" stroke-miterlimit="10"/><path d="M97.311 16.27c1.261 3.187 2.46-.735 6.558-6.067.819-1.103 1.576-5.332.819-7.293-1.261-3.554-7.755-.429-8.638 5.822-.315 2.513.946 6.803 1.261 7.538Z" stroke="#393939" stroke-width="2" stroke-miterlimit="10"/><path d="M98.634 18.785c-1.688-.746.438-.373 1.25-2.05 1.251-2.485 2.814-3.603 5.628-4.97 1.25-.621 5.127-.373 7.065.435 3.564 1.429.062 7.64-6.377 8.2-2.439.186-6.753-1.243-7.566-1.615ZM159.587 20.044c3.125 2.543 2.035-2.18 2.979-9.954.218-1.598-1.598-6.393-3.487-7.992-3.415-2.906-7.992 3.996-5.231 10.899 1.162 2.76 4.94 6.466 5.739 7.047Z" stroke="#393939" stroke-width="2" stroke-miterlimit="10"/><path d="M161.549 19.681c-.581 3.996 2.906.582 10.026-2.688 1.453-.654 4.578-4.722 5.013-7.12.727-4.432-7.556-4.723-11.988 1.235-1.743 2.398-2.906 7.629-3.051 8.573Z" stroke="#393939" stroke-width="2" stroke-miterlimit="10"/><path d="M161.622 22.297c-1.307-1.744.654-.145 2.471-1.38 2.688-1.817 4.868-2.108 8.5-1.962 1.599.072 5.377 2.47 6.975 4.432 2.834 3.487-4.286 7.847-11.043 4.795-2.689-1.162-6.321-5.159-6.903-5.885Z" stroke="#393939" stroke-width="2" stroke-miterlimit="10"/></svg>