<svg fill="none" xmlns="http://www.w3.org/2000/svg" viewBox="0 0 248 232"><path d="M110.492 224.351c3.992-3.932 10.907-11.725 14.257-23.593 2.851-10.081 1.782-18.089.713-26.454-2.067-15.657-8.269-30.385-13.544-38.607-.428-.643-1.568-2.431-2.851-5.005-2.78-5.576-6.059-12.225-4.277-17.873 1.924-6.077 8.91-8.58 14.969-10.725 7.342-2.645 20.459-5.147 22.811-.715 2.139 4.076-7.485 9.152-12.118 22.879-2.566 7.507-2.139 13.369-1.426 24.308 1.212 18.517 5.204 20.376 7.129 40.752 1.425 15.014 0 22.164-2.139 27.884a47.922 47.922 0 0 1-7.841 13.584" stroke="#393939" stroke-width="2" stroke-miterlimit="10" stroke-linecap="round"/><path d="M243.777 137.014c-.927 1.788-3.322 8.984-25.277 10.986-16.974 1.548-39.687-8.467-54-17-7.342-4.361-9.716-6.644-10.5-5.5-1.212 1.787 18.279 16.305 21.345 18.664 14.042 10.724 18.818 13.441 21.385 20.734 2.566 7.364 2.423 18.517-4.277 24.308-8.554 7.364-24.807 7.864-32.791 1.43-5.988-4.79-16.816-10.263-22.162-27.636-4.134-13.513-6.291-21.85-9-29.5" stroke="#393939" stroke-width="2" stroke-miterlimit="10"/><path d="M245.931 70.636c3.493 8.651-5.347 21.52-14.97 27.883-9.124 6.006-22.169 5.791-47.76 5.005-16.894-.5-16.965-1.716-17.108-.715-.214 1.287 4.348 2.574 20.672 4.29 25.021 2.645 33.504-.787 44.909 6.434 9.124 5.791 15.255 17.517 12.118 23.594" stroke="#393939" stroke-width="2" stroke-miterlimit="10"/><path d="M113.501 138.5c.57 6.792-3.08 24.079-10.137 37.234-7.128 13.37-23.167 29.885-34.216 25.738-9.124-3.431-13.401-20.447-9.98-33.602 5.418-21.091 30.082-30.672 28.514-33.603-1.426-2.645-20.174 8.579-47.76 10.009-12.118.644-26.874 1.144-34.216-8.579-3.992-5.291-5.846-13.584-2.852-20.019 5.846-12.726 28.086-12.797 39.92-12.869 22.168-.071 41.486 6.506 41.344 7.15-.143.786-27.088-2.145-52.75-16.444C19.32 86.795 7.63 80.145 7.13 69.206c-.427-9.509 7.699-19.518 17.108-22.163 7.699-2.145 14.043 1.287 26.375 7.864a106.506 106.506 0 0 1 24.95 18.59c12.902 12.94 18.462 24.736 19.246 24.308.856-.501-4.776-16.087-16.395-32.888-9.267-13.37-15.04-16.945-15.683-26.453-.142-1.93-.57-12.941 7.842-20.02 4.99-4.217 13.544-7.435 19.96-4.289 3.92 1.93 6.985 6.292 10.692 30.743 3.136 20.734 3.493 34.318 4.277 34.318.214 0-1.854-23.951 3.564-51.477 1.782-9.008 3.778-15.3 9.267-20.018 7.057-6.006 19.246-8.866 25.662-3.575 5.988 5.004 4.847 15.371 3.564 26.453-.57 5.22-1.568 9.008-2.851 13.584-4.848 17.73-11.049 27.955-9.98 28.598.998.572 7.485-7.364 14.257-17.874 15.611-24.308 15.326-35.533 27.8-42.897 1.497-.93 12.831-7.435 19.96-2.86 7.271 4.648 6.843 18.732 3.564 27.884-2.352 6.649-6.13 10.58-19.959 22.878-14.899 13.298-26.946 22.092-26.375 22.878.427.644 8.411-5.79 22.098-10.009 12.341-3.808 23.388-10.593 35.927-12.869 10.122-1.859 30.01.93 33.931 10.724" stroke="#393939" stroke-width="2" stroke-miterlimit="10"/><path d="M158 119c0 12.15-14.998 22-33.5 22-18.502 0-33.5-9.85-33.5-22s28.498-26 47-26 20 13.85 20 26Z" fill="#FDCF5E" style="mix-blend-mode:darken"/></svg>