<svg fill="none" xmlns="http://www.w3.org/2000/svg" viewBox="0 0 563 499"><path d="M135.714 371.061c-53.405-40.271-60.87-159.515-13.122-196.437 47.748-36.923 221.262-142.232 287.66-125.742 66.397 16.49 134.018 101.053 63.548 157.706-70.47 56.653-284.681 204.744-338.086 164.473Z" stroke="#fff" stroke-width="2"/><path d="M306.386 40.238c-77.965 49.31-185.112 192.777-177.187 236.357 7.924 43.581 61.179 167.251 129.665 146.311 68.487-20.94 261.815-107.08 251.948-173.996-9.867-66.915-126.46-257.982-204.426-208.672Z" fill="#B96955"/><path d="M189.607 112.412c3.369 7.052 7.128 3.31 14.523 3.989 15.774 1.436 30.158 23.046 30.158 23.046s-3.34 4.848-16.511 12.974c-4.651 2.839-12.518 2.364-12.518 2.364s-3.763 11.406-17.58 21.543c-4.92 3.514-10.032 4.762-10.032 4.762s-10.572 4.156-25.984 1.221c-7.126-1.354-18.441-7.896-18.441-7.896-17.864-10.717-20.765-31.505-20.765-31.505s3.755-7.655-3.344-8.684c-45.761-7.052-44.243-12.235-44.243-12.235 1.668-3.402 6.08-3.286 6.08-3.286-6-7.319 3.228-8.1 3.228-8.1-4.12-4.379.166-7.677 1.096-8.245 0 0 2.546-2.661 42.632 18.241 9.897 5.195 24.566-2.569 24.566-2.569s-3.621-4.259.017-7.502c0 0-3.539-3.287-4.12-4.379-1.136-1.861-1.369-4.613 1.26-6.303 0 0-7.12-7.06-8.527-10.202-1.394-2.98-1.237-6.907.717-8.866 0 0-4.593-4.176-5.986-7.156-1.015-2.36-1.358-6.407-.578-8.756 0 0-7.526-8.005-9.743-11.078-.743-1.079-3.286-6.08-2.158-10.09.752-2.672 1.493-3.55 1.493-3.55-8.112-13.01-3.927-21.353-3.927-21.353.003 1.956 3.388 11.127 6.63 14.765 3.784 4.245 5.595 6.375 16.654 13.754 22.12 14.76 29.536 21.469 40.183 33.611 3.433 3.95 10.815 16.042 12.227 23.097 1.75 7.189 3.155 8.375 2.993 8.388Z" fill="#E4987F"/><path d="M189.607 112.412c3.369 7.052 7.128 3.31 14.523 3.989 15.774 1.436 30.158 23.046 30.158 23.046s-3.34 4.848-16.511 12.974c-4.651 2.839-12.518 2.364-12.518 2.364s-3.763 11.406-17.58 21.543c-4.92 3.514-10.032 4.762-10.032 4.762s-10.572 4.156-25.984 1.221c-7.126-1.354-18.441-7.896-18.441-7.896-17.864-10.717-20.765-31.505-20.765-31.505s3.755-7.655-3.344-8.684c-45.761-7.052-44.243-12.235-44.243-12.235 1.668-3.402 6.08-3.286 6.08-3.286-6-7.319 3.228-8.1 3.228-8.1-4.12-4.379.166-7.677 1.096-8.245 0 0 2.546-2.661 42.632 18.241 9.897 5.195 24.566-2.569 24.566-2.569s-3.621-4.259.017-7.502c0 0-3.539-3.287-4.12-4.379-1.136-1.861-1.369-4.613 1.26-6.303 0 0-7.12-7.06-8.527-10.202-1.394-2.98-1.237-6.907.717-8.866 0 0-4.593-4.176-5.986-7.156-1.015-2.36-1.358-6.407-.578-8.756 0 0-7.526-8.005-9.743-11.078-.743-1.079-3.286-6.08-2.158-10.09.752-2.672 1.493-3.55 1.493-3.55-8.112-13.01-3.927-21.353-3.927-21.353.003 1.956 3.388 11.127 6.63 14.765 3.784 4.245 5.595 6.375 16.654 13.754 22.12 14.76 29.536 21.469 40.183 33.611 3.433 3.95 10.815 16.042 12.227 23.097 1.75 7.189 3.155 8.375 2.993 8.388Z" stroke="#fff" stroke-width="2" stroke-miterlimit="10" stroke-linejoin="round"/><path d="M134.044 47.33s-5.157 8.426 2.973 13.934c0 0 .01 7.825 1.376 10.482 1.352 2.494 5.688 5.551 6.025 5.686 0 0-2.92 5.953 1.066 10.67 2.176 2.588 6.132 5.025 6.132 5.025s-3.232 4.187-2.391 8.355c.639 3.696 3.435 5.905 3.435 5.905s-2.508 1.191-2.113 3.929c.598 3.211 2.205 4.868 2.935 5.785" stroke="#fff" stroke-width="2" stroke-miterlimit="10" stroke-linejoin="round"/><path d="M139.953 99.82s10.56 7.26 11.924 7.959M142.99 110.651s7.185 5.914 8.873 6.587M132.158 80.915s10.818 8.378 16.366 10.354M125.754 64.989s12.506 9.05 16.934 11.284M115.185 40.285s4.515 7.118 9.5 12.077c4.985 4.958 11.845 8.943 11.845 8.943M94.213 119.997l-22.587-1.023M74.53 110.902l19.683 9.095" stroke="#fff" stroke-width="2" stroke-miterlimit="10" stroke-linejoin="round"/><path d="M160.135 149.474c-5.139.924-5.022 8.088-5.022 8.088-9.444.147-9.662 9.133-9.662 9.133-12.789 1.083-12.735 11.35-12.735 11.35-8.457 2.183-9.257 10.077-9.257 10.077-10.062 2.483-12.332 10.338-12.332 10.338-25.14 7.345-27.78 20.45-27.78 20.45 2.48-1.515 15.86-5.256 22.536-7.288 6.676-2.033 25.01-3.095 28.424-3.221 3.413-.126 16.893 1.179 26.978-4.892 10.084-6.071 16.688-22.446 16.688-22.446s5.418-14.97 5.999-35.074c0 0 13.968-17.977 25.665-18.478 11.697-.5 20.314 16.543 20.314 16.543 5.162-4.513 7.478-7.971 7.478-7.971s-15.575-24.117-31.187-25.567c-11.51-1.146-16.554.911-23.439 8.179-2.533 2.823-5.732 1.627-8.89.916-6.492-1.57-14.548-2.356-31.236-1.107-15.07 1.113-46.395-16.454-55.213-22.393-12.275-8.255-37.768-33.978-37.768-33.978S52.819 77.847 62.414 89.1c9.58 11.092 34.028 32.175 34.19 32.162.162-.014-56.436 1.678-68.589 4.5-10.547 2.524-15.657 5.728-18.096 7.728 0 0 33.733 1.71 49.587 2.162 15.867.613 21.454 1.119 25.084 1.627 5.775.816 52.785 12.979 74.925 12.572l.62-.378Z" fill="#E4987F"/><path d="M160.135 149.474c-5.139.924-5.022 8.088-5.022 8.088-9.444.147-9.662 9.133-9.662 9.133-12.789 1.083-12.735 11.35-12.735 11.35-8.457 2.183-9.257 10.077-9.257 10.077-10.062 2.483-12.332 10.338-12.332 10.338-25.14 7.345-27.78 20.45-27.78 20.45 2.48-1.515 15.86-5.256 22.536-7.288 6.676-2.033 25.01-3.095 28.424-3.221 3.413-.126 16.893 1.179 26.978-4.892 10.084-6.071 16.688-22.446 16.688-22.446s5.418-14.97 5.999-35.074c0 0 13.968-17.977 25.665-18.478 11.697-.5 20.314 16.543 20.314 16.543 5.162-4.513 7.478-7.971 7.478-7.971s-15.575-24.117-31.187-25.567c-11.51-1.146-16.554.911-23.439 8.179-2.533 2.823-5.732 1.627-8.89.916-6.492-1.57-14.548-2.356-31.236-1.107-15.07 1.113-46.395-16.454-55.213-22.393-12.275-8.255-37.768-33.978-37.768-33.978S52.819 77.847 62.414 89.1c9.58 11.092 34.028 32.175 34.19 32.162.162-.014-56.436 1.678-68.589 4.5-10.547 2.524-15.657 5.728-18.096 7.728 0 0 33.733 1.71 49.587 2.162 15.867.613 21.454 1.119 25.084 1.627 5.775.816 52.785 12.979 74.925 12.572l.62-.378Z" stroke="#fff" stroke-width="2" stroke-miterlimit="10" stroke-linejoin="round"/><path d="m159.311 149.38 11.873-.353s-8.402 2.831-4.819 8.561c0 0-8.106 2.479-6.425 8.859 0 0-6.893 1.399-7.461 10.088 0 0-10.117 1.835-7.679 9.455 0 0-6.876 3.517-4.265 9.329 0 0-8.737 4.652-5.961 12.407" stroke="#fff" stroke-width="2" stroke-miterlimit="10" stroke-linejoin="round"/><path d="M111.261 198.122s24.228-2.703 28.317-2.56M123.606 187.947s15.635-2.139 20.856-2.092M132.526 177.735s15.028-1.598 19.602-1.496M145.437 166.533s9.417-.471 13.87.131M154.922 157.251s6.503-.224 10.457.257" stroke="#fff" stroke-width="2" stroke-miterlimit="10" stroke-linejoin="round"/><path d="M215.756 132.374c.246 2.914-1.828 5.372-4.742 5.619-2.753.233-5.373-1.828-5.619-4.742-.247-2.914 1.828-5.372 4.742-5.619 2.9-.408 5.372 1.828 5.619 4.742ZM237.4 135.759s-6.298-8.923-7.892-10.419c0 0-7.333 5.838-8.573 6.596 0 0 5.471 4.917 8.812 11.645.176.149 4.662-4.633 7.653-7.822Z" fill="#fff"/></svg>