<svg fill="none" xmlns="http://www.w3.org/2000/svg" viewBox="0 0 550 516"><path d="M14.593 235.33c51.19-128.883 206.167-185.834 291.5-204.5 55.167 37.666 169.701 131.3 186.501 204.5 21 91.5-102.501 198.5-186.501 247s-218 47-241.5-29c-31.78-102.774-92.498-111-50-218Z" fill="#81adc6"/><path d="M22.096 214.33C65 89.33 179.762 44.163 249.596 13.83c38.501-27.5 135.498-14.5 244.998 75.5 87.6 72 49.5 205.666 19.5 263.5-4 22.333-27.7 67-90.5 67-78.5 0-206.5 55.5-263 72.5s-110.498-34-129.998-72.5c-19.5-38.5-44.526-100.541-8.5-205.5Z" stroke="#393939" stroke-width="2"/></svg>