<svg fill="none" xmlns="http://www.w3.org/2000/svg" viewBox="0 0 351 307"><path d="M349.606 211.086c-21.107 3.628-74.837 11.552-98.225 4.913-24.631-6.965-66.994-33.319-72.892-37.316-4.575-3.072-8.662-6.186-8.662-6.186-3.255-2.521-5.717-4.562-8.709-7.048-5.681-4.826-8.522-7.239-13.22-11.398-11.444-10.251-15.456-17.071-27.834-24.671-26.895-16.512-61.226-21.42-79.734-13.16" stroke="#fff" stroke-width="2" stroke-miterlimit="10" stroke-linecap="round"/><path d="M136.358 78.82c10.962 9.575 18.908 24.163 24.976 42.395 5.773 17.343 7.065 35.469 5.632 46.465M137.912 75.562c-4.83 2.703-2.216-3.393-1.671-13.972.077-2.209 3.6-8.098 6.528-9.938 5.202-3.143 9.786 7.124 4.375 15.742-2.071 3.415-8.079 7.563-9.232 8.168Z" stroke="#fff" stroke-width="2" stroke-miterlimit="10"/><path d="M136.013 74.365c-.252 5.596-4.191.172-13.363-5.886-1.854-1.268-5.274-7.4-5.149-10.834.057-6.164 11.757-4.791 16.449 4.4 1.824 3.715 2.159 11.015 2.063 12.32Z" stroke="#fff" stroke-width="2" stroke-miterlimit="10"/><path d="M135.309 78.954c2.212-2.05-.874-.343-3.023-2.502-3.256-3.174-6.266-4.07-11.342-4.685-2.263-.294-8.121 2.153-10.687 4.433-4.747 4.105 3.971 11.841 14.221 9.277 3.867-1.01 9.774-5.514 10.831-6.523ZM41.783 113.347c-3.475 5.593-4.305-2.285-9.902-13.796-1.188-2.355-.934-10.732 1.135-14.208 3.73-6.309 14.478 1.921 13.885 14.058-.327 4.885-4.193 12.623-5.118 13.946Z" stroke="#fff" stroke-width="2" stroke-miterlimit="10"/><path d="M38.558 113.83c3.025 5.866-4.182 2.446-16.926 1.183-2.594-.237-9.588-4.861-11.537-8.335-3.482-6.462 9.163-11.32 19.183-4.472 3.971 2.777 8.553 10.242 9.28 11.624Z" stroke="#fff" stroke-width="2" stroke-miterlimit="10"/><path d="M39.835 117.912c1.093-3.391-1.088.124-4.553-.818-5.121-1.376-8.644-.665-14.18 1.493-2.432.963-6.995 6.68-8.42 10.562-2.523 6.898 10.801 9.845 19.619 1.532 3.535-3.228 7.022-11.337 7.534-12.769Z" stroke="#fff" stroke-width="2" stroke-miterlimit="10"/></svg>