<svg fill="none" xmlns="http://www.w3.org/2000/svg" viewBox="0 0 263 272"><path d="M123.41 155c3.48 0 5.34-2.535 5.34-5.25s-1.86-5.25-5.34-5.25h-3.345V155h3.345Zm-1.98-9.27h1.875c2.745 0 4.035 1.98 4.035 4.02 0 2.04-1.29 4.02-4.035 4.02h-1.875v-8.04Zm15.153 5.43c0-1.905-1.32-3.255-3.27-3.255-2.055 0-3.405 1.44-3.405 3.63 0 2.235 1.335 3.645 3.465 3.645 1.62 0 2.895-.885 3.135-2.16h-1.305c-.285.66-.915 1.02-1.83 1.02-1.32 0-2.145-.78-2.175-2.115h5.355c.03-.315.03-.51.03-.765Zm-5.385-.24c.06-1.17.84-1.965 2.1-1.965 1.26 0 2.01.75 2.01 1.965h-4.11Zm9.397 4.26c1.635 0 2.67-.765 2.67-2.085 0-.96-.585-1.635-1.605-1.92l-1.425-.39c-.75-.21-1.005-.525-1.005-.96 0-.57.525-.915 1.245-.915.9 0 1.425.42 1.425 1.08h1.275c0-1.29-1.005-2.085-2.655-2.085-1.5 0-2.58.81-2.58 1.98 0 .96.54 1.62 1.56 1.905l1.41.36c.825.21 1.035.525 1.035.99 0 .615-.51.99-1.275.99-1.02 0-1.65-.525-1.65-1.2h-1.29c0 1.275 1.17 2.25 2.865 2.25Zm5.074-8.28c.615 0 1.05-.465 1.05-1.05s-.435-1.065-1.05-1.065c-.63 0-1.065.48-1.065 1.065s.435 1.05 1.065 1.05Zm.645 8.1v-6.915h-1.29V155h1.29Zm7.58-5.685c-.435-.885-1.365-1.41-2.43-1.41-2.055 0-3.45 1.59-3.45 3.645 0 2.04 1.305 3.63 3.42 3.63 1.005 0 2.025-.525 2.46-1.395v1.125c0 1.65-.81 2.37-2.31 2.37-1.32 0-2.01-.6-2.1-1.41h-1.365c.03.75.405 1.395 1.02 1.83.63.45 1.515.675 2.46.675.99 0 1.8-.21 2.385-.645.78-.6 1.2-1.59 1.2-2.91v-6.735h-1.29v1.23Zm-2.28 4.695c-1.365 0-2.31-1.05-2.31-2.46 0-1.425.93-2.475 2.31-2.475 1.455 0 2.34 1.11 2.34 2.475 0 1.35-.885 2.46-2.34 2.46Zm7.122.99v-3.66c0-1.395.66-2.31 1.95-2.31 1.23 0 1.74.735 1.74 2.28V155h1.29v-4.26c0-1.845-.87-2.835-2.565-2.835-1.2 0-2.04.57-2.415 1.455v-1.275h-1.305V155h1.305Zm13.282-3.84c0-1.905-1.32-3.255-3.27-3.255-2.055 0-3.405 1.44-3.405 3.63 0 2.235 1.335 3.645 3.465 3.645 1.62 0 2.895-.885 3.135-2.16h-1.305c-.285.66-.915 1.02-1.83 1.02-1.32 0-2.145-.78-2.175-2.115h5.355c.03-.315.03-.51.03-.765Zm-5.385-.24c.06-1.17.84-1.965 2.1-1.965 1.26 0 2.01.75 2.01 1.965h-4.11Zm8.392 4.08v-3.015c0-1.545.645-2.79 2.01-2.79.24 0 .42 0 .645.045v-1.2a2.564 2.564 0 0 0-.63-.06c-.87 0-1.755.51-2.025 1.68v-1.575h-1.305V155h1.305Zm-63.756 24.306c2.502 0 4.176-1.458 4.176-3.618 0-1.71-.792-2.826-2.376-3.474l-1.854-.756c-1.476-.594-2.088-1.17-2.088-2.034 0-.954.684-1.566 1.872-1.566 1.404 0 2.16.792 2.16 2.178h2.07c0-2.376-1.656-3.942-4.158-3.942-2.376 0-4.032 1.404-4.032 3.456 0 1.602.828 2.736 2.412 3.348l2.052.828c1.422.576 1.872 1.062 1.872 2.016 0 1.134-.756 1.764-2.124 1.764-1.566 0-2.502-.99-2.502-2.628h-2.07c0 2.826 1.674 4.428 4.59 4.428Zm9.554-.09c1.026 0 2.178-.504 2.7-1.35V179h1.944v-8.388h-1.944v1.134c-.522-.846-1.53-1.35-2.646-1.35-2.61 0-4.176 1.944-4.176 4.41s1.422 4.41 4.122 4.41Zm.288-1.746c-1.53 0-2.448-1.134-2.448-2.664 0-1.53.918-2.664 2.448-2.664 1.674 0 2.484 1.224 2.484 2.664 0 1.44-.81 2.664-2.484 2.664Zm8.834 1.53v-12.6h-1.962V179h1.962Zm4.483 0v-12.6h-1.962V179h1.962Zm8.226-4.05c0 1.44-.648 2.538-2.016 2.538-1.404 0-1.818-.936-1.818-2.178v-4.698h-1.962v5.112c0 2.016 1.026 3.492 3.096 3.492 1.242 0 2.178-.486 2.7-1.386v1.062c0 1.782-.846 2.484-2.016 2.484-1.26 0-1.71-.504-1.8-1.422h-1.98c.018.918.342 1.656.936 2.178.666.558 1.638.864 2.88.864 1.188 0 2.16-.342 2.844-.972.702-.684 1.098-1.674 1.098-2.988v-8.424h-1.962v4.338Zm16.208 4.05v-1.944h-5.058V166.4h-2.07V179h7.128Zm5.115.216c1.026 0 2.178-.504 2.7-1.35V179h1.944v-8.388h-1.944v1.134c-.522-.846-1.53-1.35-2.646-1.35-2.61 0-4.176 1.944-4.176 4.41s1.422 4.41 4.122 4.41Zm.288-1.746c-1.53 0-2.448-1.134-2.448-2.664 0-1.53.918-2.664 2.448-2.664 1.674 0 2.484 1.224 2.484 2.664 0 1.44-.81 2.664-2.484 2.664ZM173.1 179v-4.608c0-1.476.72-2.322 1.998-2.322 1.368 0 1.836.774 1.836 2.556V179h1.962v-5.274c0-2.196-1.044-3.33-3.06-3.33-1.242 0-2.214.486-2.736 1.386v-1.17h-1.962V179h1.962Zm14.425-7.254c-.522-.846-1.53-1.35-2.646-1.35-2.61 0-4.176 1.944-4.176 4.41s1.422 4.41 4.122 4.41c1.026 0 2.178-.504 2.7-1.35V179h1.944v-12.6h-1.944v5.346Zm-2.412 5.724c-1.53 0-2.448-1.134-2.448-2.664 0-1.53.918-2.664 2.448-2.664 1.674 0 2.484 1.224 2.484 2.664 0 1.44-.81 2.664-2.484 2.664Z" fill="#393939"/><path d="M43.997 43.4c-49.202 62.064-26.62 156.469-3.107 176.234 23.513 19.764 107.534 63.874 136.89 26.238 29.356-37.637 100.404-158.052 65.596-189.295C208.568 25.334 93.199-18.663 43.996 43.4Z" fill="#fff" stroke="#fff" stroke-width="20"/><mask id="a" style="mask-type:alpha" maskUnits="userSpaceOnUse" x="28" y="27" width="210" height="218"><path d="M61.735 62.506C22.686 111.76 40.609 186.685 59.269 202.37c18.66 15.685 85.343 50.693 108.641 20.823 23.297-29.87 79.684-125.435 52.059-150.23C192.344 48.167 100.783 13.25 61.735 62.505Z" fill="#fff" stroke="#fff" stroke-width="20"/></mask></svg>