<svg fill="none" xmlns="http://www.w3.org/2000/svg" viewBox="0 0 362 355"><path d="M64.866 275.792c-37.94-28.61-43.242-113.321-9.322-139.552 33.92-26.23 157.187-101.043 204.357-89.328 47.169 11.714 95.208 71.789 45.146 112.036-50.063 40.247-202.242 145.453-240.181 116.844Z" stroke="#E4987F" stroke-width="2"/><path d="M179.347 28.585C123.959 63.615 47.84 165.536 53.47 196.497c5.63 30.96 43.463 118.816 92.116 103.94 48.654-14.876 185.996-76.07 178.987-123.608-7.01-47.538-89.839-183.274-145.226-148.244Z" fill="#E4987F"/><path d="M142.014 152.526c-2.762 4.845-5.245 1.987-10.544 2.089-11.302.208-22.657 14.847-22.657 14.847s2.127 3.623 11.083 10.088c3.164 2.261 8.788 2.329 8.788 2.329s2.09 8.313 11.401 16.243c3.321 2.755 6.895 3.908 6.895 3.908s7.311 3.504 18.434 2.211c5.142-.596 13.534-4.668 13.534-4.668 13.27-6.706 16.408-21.354 16.408-21.354s-2.277-5.643 2.829-6.009c32.938-2.656 32.125-6.423 32.125-6.423-1.012-2.508-4.158-2.654-4.158-2.654 4.648-4.9-1.88-5.932-1.88-5.932 3.16-2.905.279-5.473-.354-5.926 0 0-1.675-2.026-31.288 10.782-7.313 3.187-17.355-3.097-17.355-3.097s2.798-2.844.376-5.341c0 0 2.689-2.157 3.159-2.904.905-1.266 1.213-3.213-.571-4.552 0 0 5.432-4.658 6.596-6.822 1.146-2.049 1.237-4.852-.052-6.347 0 0 3.485-2.736 4.63-4.785.845-1.628 1.298-4.491.864-6.203 0 0 5.77-5.309 7.507-7.382.585-.73 2.653-4.159 2.057-7.071-.397-1.941-.879-2.604-.879-2.604 6.446-8.842 3.898-14.997 3.898-14.997-.103 1.392-2.986 7.745-5.482 10.168-2.912 2.826-4.311 4.248-12.565 8.93-16.507 9.363-22.133 13.756-30.339 21.85-2.647 2.634-8.527 10.86-9.896 15.809-1.617 5.027-2.678 5.798-2.564 5.817Z" fill="#E4987F"/><path d="M142.014 152.526c-2.762 4.845-5.245 1.987-10.544 2.089-11.302.208-22.657 14.847-22.657 14.847s2.127 3.623 11.083 10.088c3.164 2.261 8.788 2.329 8.788 2.329s2.09 8.313 11.401 16.243c3.321 2.755 6.895 3.908 6.895 3.908s7.311 3.504 18.434 2.211c5.142-.596 13.534-4.668 13.534-4.668 13.27-6.706 16.408-21.354 16.408-21.354s-2.277-5.643 2.829-6.009c32.938-2.656 32.125-6.423 32.125-6.423-1.012-2.508-4.158-2.654-4.158-2.654 4.648-4.9-1.88-5.932-1.88-5.932 3.16-2.905.279-5.473-.354-5.926 0 0-1.675-2.026-31.288 10.782-7.313 3.187-17.355-3.097-17.355-3.097s2.798-2.844.376-5.341c0 0 2.689-2.157 3.159-2.904.905-1.266 1.213-3.213-.571-4.552 0 0 5.432-4.658 6.596-6.822 1.146-2.049 1.237-4.852-.052-6.347 0 0 3.485-2.736 4.63-4.785.845-1.628 1.298-4.491.864-6.203 0 0 5.77-5.309 7.507-7.382.585-.73 2.653-4.159 2.057-7.071-.397-1.941-.879-2.604-.879-2.604 6.446-8.842 3.898-14.997 3.898-14.997-.103 1.392-2.986 7.745-5.482 10.168-2.912 2.826-4.311 4.248-12.565 8.93-16.507 9.363-22.133 13.756-30.339 21.85-2.647 2.634-8.527 10.86-9.896 15.809-1.617 5.027-2.678 5.798-2.564 5.817Z" stroke="#fff" stroke-width="2" stroke-miterlimit="10" stroke-linejoin="round"/><path d="M184.929 109.068s3.235 6.265-2.836 9.765c0 0-.411 5.57-1.521 7.39-1.091 1.706-4.335 3.658-4.582 3.737 0 0 1.771 4.388-1.31 7.54-1.682 1.73-4.625 3.26-4.625 3.26s2.085 3.148 1.271 6.071c-.646 2.598-2.75 4.026-2.75 4.026s1.724.977 1.301 2.906c-.591 2.254-1.821 3.351-2.388 3.966" stroke="#fff" stroke-width="2" stroke-miterlimit="10" stroke-linejoin="round"/><path d="M178.01 146.127s-7.892 4.622-8.899 5.05M175.29 153.68s-5.42 3.838-6.656 4.23M184.537 133.072s-8.134 5.405-12.185 6.525M189.915 122.066s-9.369 5.797-12.637 7.158M198.716 105.027s-3.582 4.834-7.386 8.106c-3.805 3.272-8.893 5.755-8.893 5.755M209.527 162.852l16.132.438M224.008 157.394l-14.481 5.457" stroke="#fff" stroke-width="2" stroke-miterlimit="10" stroke-linejoin="round"/><path d="M161.081 180.429c3.611.923 3.157 6.017 3.157 6.017 6.715.592 6.406 7 6.406 7 9.048 1.431 8.479 8.737 8.479 8.737 5.907 1.991 6.069 7.651 6.069 7.651 7.034 2.287 8.244 7.995 8.244 7.995 17.516 6.528 18.719 15.992 18.719 15.992-1.688-1.206-11.018-4.56-15.665-6.352-4.648-1.791-17.644-3.495-20.067-3.761-2.423-.265-12.086-.033-18.951-4.875-6.865-4.843-10.719-16.84-10.719-16.84s-3.084-10.935-2.459-25.276c0 0-9.015-13.517-17.315-14.478-8.301-.961-15.314 10.726-15.314 10.726-3.442-3.479-4.912-6.06-4.912-6.06s12.332-16.363 23.52-16.589c8.253-.221 11.737 1.504 16.262 7.033 1.657 2.141 3.996 1.454 6.281 1.111 4.702-.782 10.477-.925 22.292.826 10.669 1.57 33.874-9.317 40.458-13.089 9.164-5.242 28.639-22.236 28.639-22.236s-3.035 11.025-10.445 18.54c-7.393 7.4-25.885 21.146-25.999 21.128-.115-.019 40.086 4.109 48.591 6.746 7.378 2.341 10.849 4.885 12.482 6.435 0 0-24.1-.525-35.409-1.022-11.326-.383-15.329-.311-17.939-.137-4.154.282-38.244 6.512-53.983 5.079l-.422-.301Z" fill="#E4987F"/><path d="M161.081 180.429c3.611.923 3.157 6.017 3.157 6.017 6.715.592 6.406 7 6.406 7 9.048 1.431 8.479 8.737 8.479 8.737 5.907 1.991 6.069 7.651 6.069 7.651 7.034 2.287 8.244 7.995 8.244 7.995 17.516 6.528 18.719 15.992 18.719 15.992-1.688-1.206-11.018-4.56-15.665-6.352-4.648-1.791-17.644-3.495-20.067-3.761-2.423-.265-12.086-.033-18.951-4.875-6.865-4.843-10.719-16.84-10.719-16.84s-3.084-10.935-2.459-25.276c0 0-9.015-13.517-17.315-14.478-8.301-.961-15.314 10.726-15.314 10.726-3.442-3.479-4.912-6.06-4.912-6.06s12.332-16.363 23.52-16.589c8.253-.221 11.737 1.504 16.262 7.033 1.657 2.141 3.996 1.454 6.281 1.111 4.702-.782 10.477-.925 22.292.826 10.669 1.57 33.874-9.317 40.458-13.089 9.164-5.242 28.639-22.236 28.639-22.236s-3.035 11.025-10.445 18.54c-7.393 7.4-25.885 21.146-25.999 21.128-.115-.019 40.086 4.109 48.591 6.746 7.378 2.341 10.849 4.885 12.482 6.435 0 0-24.1-.525-35.409-1.022-11.326-.383-15.329-.311-17.939-.137-4.154.282-38.244 6.512-53.983 5.079l-.422-.301Z" stroke="#fff" stroke-width="2" stroke-miterlimit="10" stroke-linejoin="round"/><path d="m161.671 180.405-8.433-.864s5.835 2.449 2.988 6.342c0 0 5.642 2.184 4.116 6.638 0 0 4.834 1.352 4.79 7.567 0 0 7.107 1.828 4.978 7.126 0 0 4.713 2.859 2.554 6.861 0 0 5.978 3.763 3.602 9.139" stroke="#fff" stroke-width="2" stroke-miterlimit="10" stroke-linejoin="round"/><path d="M193.358 217.582s-17.107-3.175-20.025-3.284M185.096 209.701s-11.019-2.329-14.738-2.565M179.274 201.972s-10.615-1.914-13.876-2.078M170.663 193.331s-6.679-.821-9.88-.623M164.388 186.235s-4.617-.496-7.456-.358" stroke="#fff" stroke-width="2" stroke-miterlimit="10" stroke-linejoin="round"/><path d="M122.373 165.384c-.326 2.062 1.023 3.919 3.085 4.245 1.947.308 3.918-1.024 4.244-3.085.327-2.062-1.023-3.919-3.085-4.245-2.043-.441-3.918 1.024-4.244 3.085ZM106.79 166.676s4.944-6.027 6.156-7.009c0 0 4.918 4.535 5.762 5.138 0 0-4.148 3.217-6.874 7.834-.133.097-3.08-3.539-5.044-5.963Z" fill="#fff"/></svg>